<svg class="absolute bottom-16 w-full -left-72" width="999" height="180" viewBox="0 0 999 180" fill="none" xmlns="http://www.w3.org/2000/svg"><path opacity="1" d="M-636 95.11C-629.53 96.47 -623.36 98.96 -616.33 96.9C-608.71 94.67 -601.17 92.17 -593.47 90.21C-589.84 89.29 -586.07 87.88 -582.6 90.26C-579.6 92.32 -577.11 94.81 -575.32 98.3C-573.44 101.97 -572.16 105.98 -569.52 109.31C-566.34 113.32 -562.1 113.93 -558.6 110.35C-554.04 105.69 -553.14 99.38 -551.54 93.46C-549.44 85.7 -545.93 78.73 -539.98 73.37C-533.32 67.36 -526.73 69.12 -522.49 77.06C-521.15 79.57 -520.43 82.13 -519.93 84.76C-517.98 95 -515.82 105.18 -513.27 115.27C-511.68 121.55 -509.21 127.6 -505.09 132.68C-501.78 136.76 -498.68 136.53 -495.94 132.14C-494.14 129.26 -492.6 126.24 -491.4 122.95C-486.88 110.52 -484.62 97.54 -481.8 84.72C-477.14 63.54 -473.66 42.07 -464.8 22.04C-461.94 15.59 -459.74 8.69 -453.09 5C-448.91 6.77 -447.86 10.54 -446.27 13.87C-441.25 24.4 -440.43 35.8 -440.37 47.12C-440.24 74.1 -440.79 101.11 -435.86 127.8C-434.37 135.91 -433.34 144.4 -425.63 149.72C-423.37 148.71 -422.89 146.81 -422.21 144.73C-417.36 129.83 -416.5 114.24 -414.07 98.92C-413.12 92.93 -412.34 86.87 -409.2 81.46C-406.72 77.19 -404.53 76.73 -401.61 80.42C-398.89 83.85 -398.23 88.2 -397.16 92.36C-393.56 106.39 -381.29 108.91 -372.54 101.78C-369.31 99.15 -366.48 96.19 -363.41 93.44C-359.74 90.16 -357.23 90.1 -354.19 94.06C-352.44 96.32 -350.75 98.59 -348.66 100.54C-343.05 105.78 -337.43 105.77 -331.76 100.54C-326.58 95.76 -323.59 89.58 -321.46 83.08C-316.03 66.46 -312.67 49.29 -308.32 32.39C-306.55 25.52 -305.03 18.6 -301.78 12.21C-300.21 9.12 -298.3 5.89 -294.68 5.84C-290.87 5.78 -288.53 8.58 -286.97 12.18C-285.43 15.73 -284.77 19.45 -283.74 23.11C-279.26 39.05 -280.93 55.52 -280.34 71.66C-279.46 95.97 -278.48 120.33 -278.73 144.7C-278.8 151.18 -277.53 157.76 -274.53 163.79C-269.77 173.38 -259.21 175.74 -253.93 168.05C-252.36 165.77 -251.26 162.89 -250.44 159.99C-248.27 152.29 -248.28 144.34 -247.12 136.54C-244.64 119.94 -240.81 103.56 -238.37 86.93C-237.68 82.25 -236.33 77.12 -231.45 74.02C-226.69 76.96 -225.54 81.86 -223.82 86.37C-221.65 92.05 -219.84 97.91 -215.09 102.18C-211.05 105.81 -207.44 105.67 -203.58 102.23C-200.86 99.8 -199.92 96.71 -199.3 93.45C-196.74 80.01 -195.1 66.38 -191.61 53.12C-189.31 44.4 -187.27 35.54 -181.9 27.81C-177.26 31.97 -177.14 37.65 -177.07 42.76C-176.85 58.93 -176.12 75.1 -176.31 91.28C-176.42 100.55 -176.85 109.83 -175.83 119.09C-174.84 128.05 -174.2 137.05 -169.87 145.28C-168.39 148.11 -166.55 150.1 -163.28 150.13C-160.11 150.16 -159.27 147.46 -157.76 145.31C-154.11 140.14 -154.27 134.06 -153.62 128.34C-152.42 117.66 -151.64 106.99 -148.07 96.72C-145.77 90.1 -143.32 83.59 -138.7 78.24C-135.11 74.08 -131.82 74.36 -128.96 78.76C-127.54 80.94 -126.48 83.3 -125.55 85.79C-123.43 91.48 -122.9 97.5 -121.3 103.28C-119.67 109.16 -117.35 109.94 -113.13 106C-112 104.95 -111.11 103.52 -109.82 102.79C-104.3 99.69 -99.3 96.94 -93.49 103.83C-91.75 105.9 -89.83 107.85 -87.95 109.74C-79.92 117.84 -70.53 120.31 -60.69 111.01C-53.42 104.14 -47.71 96.36 -43.32 87.48C-40.9 82.58 -38.33 77.72 -35.08 73.35C-32.34 69.67 -30.34 70.22 -28.03 74.37C-25.57 78.79 -23.96 83.59 -21.56 88.04C-19.36 92.11 -19.45 94.68 -13.86 97.62C-12.06 98.56 -8.21999 99.98 -6.23999 100.44C-3.40999 101.1 0.390044 101.2 7.42004 99.14C15.04 96.91 22.58 94.41 30.28 92.45C33.91 91.53 37.68 90.12 41.15 92.5C44.15 94.56 46.64 97.05 48.43 100.54C50.31 104.21 51.59 108.22 54.23 111.55C57.41 115.56 61.65 116.17 65.15 112.59C69.71 107.93 70.61 101.62 72.21 95.7C74.31 87.94 77.82 80.97 83.77 75.61C90.43 69.6 97.02 71.36 101.26 79.3C102.6 81.81 103.32 84.37 103.82 87C105.77 97.24 107.93 107.42 110.48 117.51C112.07 123.79 114.54 129.84 118.66 134.92C121.97 139 125.07 138.77 127.81 134.38C129.61 131.5 131.15 128.48 132.35 125.19C136.87 112.76 139.13 99.78 141.95 86.96C146.61 65.78 150.09 44.31 158.95 24.28C161.81 17.83 164.01 10.93 170.66 7.24C174.84 9.01 175.89 12.78 177.48 16.11C182.5 26.64 183.32 38.04 183.38 49.36C183.51 76.34 182.96 103.35 187.89 130.04C189.38 138.15 190.41 146.64 198.12 151.96C200.38 150.95 200.86 149.05 201.54 146.97C206.39 132.07 207.25 116.48 209.68 101.16C210.63 95.17 211.41 89.11 214.55 83.7C217.03 79.43 219.22 78.97 222.14 82.66C224.86 86.09 225.52 90.44 226.59 94.6C230.19 108.63 242.46 111.15 251.21 104.02C254.44 101.39 257.27 98.43 260.34 95.68C264.01 92.4 266.52 92.34 269.56 96.3C271.31 98.56 273 100.83 275.09 102.78C280.7 108.02 286.32 108.01 291.99 102.78C297.17 98 300.16 91.82 302.29 85.32C307.72 68.7 311.08 51.53 315.43 34.63C317.2 27.76 318.72 20.84 321.97 14.45C323.54 11.36 325.45 8.13 329.07 8.08C332.88 8.02 335.22 10.82 336.78 14.42C338.32 17.97 338.98 21.69 340.01 25.35C344.49 41.29 342.82 57.76 343.41 73.9C344.29 98.21 345.27 122.57 345.02 146.94C344.95 153.42 346.22 160 349.22 166.03C353.98 175.62 364.54 177.98 369.82 170.29C371.39 168.01 372.49 165.13 373.31 162.23C375.48 154.53 375.47 146.58 376.63 138.78C379.11 122.18 382.94 105.8 385.38 89.17C386.07 84.49 387.42 79.36 392.3 76.26C397.06 79.2 398.21 84.1 399.93 88.61C402.1 94.29 403.91 100.15 408.66 104.42C412.7 108.05 416.31 107.91 420.17 104.47C422.89 102.04 423.83 98.95 424.45 95.69C427.01 82.25 428.65 68.62 432.14 55.36C434.44 46.64 436.48 37.78 441.85 30.05C446.49 34.21 446.61 39.89 446.68 45C446.9 61.17 447.63 77.34 447.44 93.52C447.33 102.79 446.9 112.07 447.92 121.33C448.91 130.29 449.55 139.29 453.88 147.52C455.36 150.35 457.2 152.34 460.47 152.37C463.64 152.4 464.48 149.7 465.99 147.55C469.64 142.38 469.48 136.3 470.13 130.58C471.33 119.9 472.11 109.23 475.68 98.96C477.98 92.34 480.43 85.83 485.05 80.48C488.64 76.32 491.93 76.6 494.79 81C496.21 83.18 497.27 85.54 498.2 88.03C500.32 93.72 500.85 99.74 502.45 105.52C504.08 111.4 506.4 112.18 510.62 108.24C511.75 107.19 512.64 105.76 513.93 105.03C519.45 101.93 524.45 99.18 530.26 106.07C532 108.14 533.92 110.09 535.8 111.98C543.83 120.08 553.22 122.55 563.06 113.25C570.33 106.38 576.04 98.6 580.43 89.72C582.85 84.82 585.42 79.96 588.67 75.59C591.41 71.91 593.41 72.46 595.72 76.61C598.18 81.03 599.79 85.83 602.19 90.28C604.38 94.35 605.97 98.87 611.5 99.52" stroke="url(#paint0_linear_16165_32342)" stroke-width="10" stroke-linecap="round" stroke-linejoin="round" pathLength="1" stroke-dashoffset="0px" stroke-dasharray="1px 1px"></path><defs><linearGradient id="paint0_linear_16165_32342" x1="48" y1="150" x2="214.6" y2="436.003" gradientUnits="userSpaceOnUse"><stop offset="0.200646" stop-color="#5C008B"></stop><stop offset="0.495905" stop-color="#FFBFF1"></stop><stop offset="0.711864" stop-color="#7F2595" stop-opacity="0"></stop><stop offset="1" stop-color="#A0479E"></stop></linearGradient></defs></svg>