<svg xmlns="http://www.w3.org/2000/svg" id="Capa_1" viewBox="0 0 604.89 165.96"><defs><style>      .cls-1 {        fill: #ec8a1c;      }      .cls-2 {        fill: none;        stroke: #000;        stroke-linecap: round;        stroke-linejoin: round;        stroke-width: .75px;      }      .cls-3 {        fill: #ec8a1d;      }    </style></defs><path class="cls-3" d="M170.29,147.96s.05-.04.07-.07c-.04.04-.08.08-.12.12.02-.02.03-.04.05-.05"></path><path class="cls-1" d="M160.55,13.39c.1-.21.02-.46-.19-.56h-9.65c-.12,0-.47-.03-.62.31l-21.34,49.07c-.29.68-1.25.69-1.57.03l-23.59-49.1c-.15-.33-.51-.3-.67-.3l-9.65.02c-.21.1-.29.35-.19.56l29.09,58.62c.22.44.34.94.32,1.43-.06,1.26-.27,2.49-.61,3.66-1.94,6.66-8.19,11.53-15.59,11.54-8.96,0-15.85-7.13-15.85-15.94v-38.12c-.34-13.19-11.33-23.77-24.82-23.77-8.47,0-15.94,4.17-20.41,10.53h0c-4.48-6.36-11.96-10.52-20.42-10.52-6.11,0-11.71,2.17-16.03,5.78h0s0-3.24,0-3.24c0-.31-.25-.56-.56-.56H.56C.25,12.82,0,13.08,0,13.39v21.37s0-.13,0-.13v36.21c.01.31.26.56.57.56h7.64c.31,0,.56-.25.56-.56v-36.21c-.01-1.53.21-3.01.62-4.41,1.94-6.66,8.19-11.53,15.59-11.54,8.96,0,15.85,7.13,15.85,15.94v36.21c.01.31.26.56.57.56h7.64c.31,0,.56-.25.56-.57v-36.21s-.01,0-.01,0c0-1.53.22-3.01.63-4.41,1.94-6.66,8.19-11.53,15.59-11.54,8.96,0,15.85,7.13,15.85,15.94h0s.01,38.1.01,38.1v.02c.33,13.19,11.31,23.77,24.81,23.77,11.34,0,19.7-7.29,24.32-18.1l29.74-65.01Z"></path><path class="cls-1" d="M197.41,78.22v-5.13c0-.93-.76-1.69-1.69-1.69h-47.6c-.93,0-1.69.76-1.69,1.69v5.2h0,0c0,5.72-.98,11.41-2.79,16.77-.91,2.6-1.96,5.11-3.17,7.52-7.25,14.03-20.55,24.34-36.67,24.34-.44,0-.8.36-.8.8s.36.8.8.8c27.47,0,47.82-24.74,47.82-49.68h6.17c0,30.31-23.1,57.42-53.97,57.43-.45-.02-.83.35-.83.8s.36.8.8.8h.02c32.77-.01,59.51-28.92,59.51-59.59v.56s5.81,0,5.81,0c0,36.53-28.14,66.72-65.21,66.79h-.03s-.02,0-.03,0c-.01,0-.02,0-.03,0-.01,0-.03,0-.04,0-.44,0-.8.36-.8.8s.36.8.8.8h.03c2.18,0,4.35-.1,6.48-.3,16.17-1.51,29.99-8.56,42.2-19.87,14.31-13.25,22.19-30.57,22.19-48.22h5.81v-.56c0,43.4-33.31,76.7-76.71,76.7-.44,0-.8.36-.8.8s.36.8.8.8c45.67,0,82.25-34.78,82.25-77.75h5.81c0,49.1-38.4,85.51-88.06,85.51-.44,0-.8.36-.8.8s.36.8.8.8c51.83,0,93.61-37.98,93.61-87.67,0-.02-.01-.05-.01-.07M169.07,140.52s.05-.04.07-.07c-.04.04-.08.08-.12.12.02-.02.03-.04.05-.05"></path><g><path d="M172.96,47.36l4.51-3.12c.23-.16.55-.06.67.2,2.09,4.6,6.97,6.64,12.63,6.64,6.67,0,9.84-2.68,9.84-6.02,0-3.01-2.52-4.8-10.65-6.26-11.54-2.12-15.77-5.28-15.77-12.12s6.1-12.19,16.02-12.19c8.54,0,13.63,2.97,15.98,9.39.07.2,0,.45-.2.56l-4.73,2.78c-.25.15-.55.01-.65-.25-1.84-4.97-5.44-6.8-10.39-6.8-5.45,0-9.51,2.93-9.51,5.94,0,3.49,2.68,5.28,10.97,6.67,11.39,1.87,15.45,5.28,15.45,11.95,0,7.07-6.58,12.03-16.99,12.03-7.34,0-14.12-2.81-17.3-8.83-.12-.2-.04-.46.15-.59h-.01Z"></path><path class="cls-2" d="M190.76,51.09c6.67,0,9.84-2.68,9.84-6.02,0-3.01-2.52-4.8-10.65-6.26-11.54-2.12-15.77-5.28-15.77-12.12s6.1-12.19,16.02-12.19c8.54,0,13.63,2.97,15.98,9.39.07.2,0,.45-.2.56l-4.73,2.78c-.25.15-.55.01-.65-.25-1.84-4.97-5.44-6.8-10.39-6.8-5.45,0-9.51,2.93-9.51,5.94,0,3.49,2.68,5.28,10.97,6.67,11.39,1.87,15.45,5.28,15.45,11.95,0,7.07-6.58,12.03-16.99,12.03-7.34,0-14.12-2.81-17.3-8.83-.12-.2-.04-.46.15-.59h-.01l4.51-3.12c.23-.16.55-.06.67.2,2.09,4.6,6.97,6.64,12.63,6.64"></path><path d="M249.56,29.94v25.56c0,.25-.2.45-.45.45h-5.6c-.25,0-.45-.2-.45-.45v-23.28c0-9.03-4.39-12.03-10-12.03-5.93,0-12.6,3.83-12.6,14.24v21.09c0,.25-.2.45-.45.45h-5.6c-.25,0-.45-.2-.45-.45V1.17c0-.25.2-.45.45-.45h5.6c.25,0,.45.2.45.45v18.72c0,.44.55.62.81.26,2.91-3.99,7.41-5.67,12.44-5.67,8.71,0,15.86,4.96,15.86,15.45h-.01Z"></path><path class="cls-2" d="M249.56,29.94v25.56c0,.25-.2.45-.45.45h-5.6c-.25,0-.45-.2-.45-.45v-23.28c0-9.03-4.39-12.03-10-12.03-5.93,0-12.6,3.83-12.6,14.24v21.09c0,.25-.2.45-.45.45h-5.6c-.25,0-.45-.2-.45-.45V1.17c0-.25.2-.45.45-.45h5.6c.25,0,.45.2.45.45v18.72c0,.44.55.62.81.26,2.91-3.99,7.41-5.67,12.44-5.67,8.71,0,15.86,4.96,15.86,15.45h-.01Z"></path><path d="M293.27,38.07h-29.73c-.28,0-.49.25-.46.52.96,7.9,5.87,12.48,13.19,12.48,5.7,0,9.67-1.94,11.28-5.57.1-.25.39-.35.62-.23l4.6,2.39c.23.11.32.42.19.64-3.12,5.28-8.12,8.45-16.67,8.45-12.28,0-19.69-7.97-19.69-21.14s6.91-21.14,19.19-21.14,18.21,8.54,18.21,19.03c0,1.67-.13,3.07-.28,4.16-.03.23-.22.39-.45.39M263.62,32.3h23.57c.28,0,.49-.25.46-.52-1.03-7.16-5.13-11.58-11.89-11.58s-11.5,4.26-12.61,11.58c-.04.28.17.54.46.54h0Z"></path><path class="cls-2" d="M293.27,38.07h-29.73c-.28,0-.49.25-.46.52.96,7.9,5.87,12.48,13.19,12.48,5.7,0,9.67-1.94,11.28-5.57.1-.25.39-.35.62-.23l4.6,2.39c.23.11.32.42.19.64-3.12,5.28-8.12,8.45-16.67,8.45-12.28,0-19.69-7.97-19.69-21.14s6.91-21.14,19.19-21.14,18.21,8.54,18.21,19.03c0,1.67-.13,3.07-.28,4.16-.03.23-.22.39-.45.39ZM263.62,32.3h23.57c.28,0,.49-.25.46-.52-1.03-7.16-5.13-11.58-11.89-11.58s-11.5,4.26-12.61,11.58c-.04.28.17.54.46.54h0Z"></path><path d="M335.32,38.07h-29.73c-.28,0-.49.25-.46.52.96,7.9,5.87,12.48,13.19,12.48,5.7,0,9.68-1.94,11.28-5.57.1-.25.39-.35.62-.23l4.6,2.39c.23.11.32.42.19.64-3.12,5.28-8.12,8.45-16.67,8.45-12.28,0-19.67-7.97-19.67-21.14s6.91-21.14,19.19-21.14,18.21,8.54,18.21,19.03c0,1.67-.13,3.07-.28,4.16-.03.23-.22.39-.45.39h-.01ZM305.68,32.3h23.57c.28,0,.49-.25.46-.52-1.03-7.16-5.13-11.58-11.89-11.58s-11.5,4.26-12.61,11.58c-.04.28.17.54.46.54h0Z"></path><path class="cls-2" d="M335.32,38.07h-29.73c-.28,0-.49.25-.46.52.96,7.9,5.87,12.48,13.19,12.48,5.7,0,9.68-1.94,11.28-5.57.1-.25.39-.35.62-.23l4.6,2.39c.23.11.32.42.19.64-3.12,5.28-8.12,8.45-16.67,8.45-12.28,0-19.67-7.97-19.67-21.14s6.91-21.14,19.19-21.14,18.21,8.54,18.21,19.03c0,1.67-.13,3.07-.28,4.16-.03.23-.22.39-.45.39h-.01ZM305.68,32.3h23.57c.28,0,.49-.25.46-.52-1.03-7.16-5.13-11.58-11.89-11.58s-11.5,4.26-12.61,11.58c-.04.28.17.54.46.54h0Z"></path><path d="M455.68,29.94v25.56c0,.25-.2.45-.45.45h-5.6c-.25,0-.45-.2-.45-.45v-24.92c0-7.39-4.23-10.41-9.6-10.41-6.35,0-12.03,4.8-12.03,13.5v21.82c0,.25-.2.45-.45.45h-5.6c-.25,0-.45-.2-.45-.45v-24.92c0-7.39-4.22-10.41-9.6-10.41s-12.03,3.99-12.03,14.06v21.25c0,.25-.2.45-.45.45h-5.6c-.25,0-.45-.2-.45-.45V15.73c0-.25.2-.45.45-.45h4.81c.25,0,.44.19.45.42l.29,4.55c.03.42.56.58.81.25,2.99-4.18,7.64-6.04,12.28-6.04,5.42,0,10.76,2.29,13.58,7.2.19.32.62.32.8,0,2.75-4.99,8.89-7.19,13.76-7.19,7.8,0,15.53,4.71,15.53,15.45h-.01Z"></path><path class="cls-2" d="M455.68,29.94v25.56c0,.25-.2.45-.45.45h-5.6c-.25,0-.45-.2-.45-.45v-24.92c0-7.39-4.23-10.41-9.6-10.41-6.35,0-12.03,4.8-12.03,13.5v21.82c0,.25-.2.45-.45.45h-5.6c-.25,0-.45-.2-.45-.45v-24.92c0-7.39-4.22-10.41-9.6-10.41s-12.03,3.99-12.03,14.06v21.25c0,.25-.2.45-.45.45h-5.6c-.25,0-.45-.2-.45-.45V15.73c0-.25.2-.45.45-.45h4.81c.25,0,.44.19.45.42l.29,4.55c.03.42.56.58.81.25,2.99-4.18,7.64-6.04,12.28-6.04,5.42,0,10.76,2.29,13.58,7.2.19.32.62.32.8,0,2.75-4.99,8.89-7.19,13.76-7.19,7.8,0,15.53,4.71,15.53,15.45h-.01Z"></path><path d="M499.41,15.76v39.74c0,.25-.2.45-.45.45h-4.81c-.25,0-.43-.19-.45-.42l-.29-4.39c-.03-.42-.57-.58-.81-.25-2.96,4.09-7.84,5.89-13.83,5.89-8.05,0-14.96-4.15-14.96-14.87V15.76c0-.25.2-.45.45-.45h5.6c.25,0,.45.2.45.45v24.43c0,8.38,3.74,10.89,9.6,10.89,6.91,0,13-4.06,13-13.66V15.76c0-.25.2-.45.45-.45h5.6c.25,0,.45.2.45.45h.01Z"></path><path class="cls-2" d="M499.41,15.76v39.74c0,.25-.2.45-.45.45h-4.81c-.25,0-.43-.19-.45-.42l-.29-4.39c-.03-.42-.57-.58-.81-.25-2.96,4.09-7.84,5.89-13.83,5.89-8.05,0-14.96-4.15-14.96-14.87V15.76c0-.25.2-.45.45-.45h5.6c.25,0,.45.2.45.45v24.43c0,8.38,3.74,10.89,9.6,10.89,6.91,0,13-4.06,13-13.66V15.76c0-.25.2-.45.45-.45h5.6c.25,0,.45.2.45.45h.01Z"></path><path d="M508.11,47.36l4.51-3.12c.23-.16.55-.06.67.2,2.09,4.6,6.97,6.64,12.63,6.64,6.67,0,9.84-2.68,9.84-6.02,0-3.01-2.52-4.8-10.65-6.26-11.54-2.12-15.77-5.28-15.77-12.12s6.1-12.19,16.02-12.19c8.54,0,13.63,2.97,15.98,9.39.07.2,0,.45-.2.56l-4.73,2.78c-.25.15-.55.01-.65-.25-1.84-4.97-5.44-6.8-10.39-6.8-5.45,0-9.51,2.93-9.51,5.94,0,3.49,2.68,5.28,10.98,6.67,11.39,1.87,15.45,5.28,15.45,11.95,0,7.07-6.58,12.03-16.99,12.03-7.34,0-14.12-2.81-17.3-8.83-.12-.2-.04-.46.15-.59h-.01Z"></path><path class="cls-2" d="M508.11,47.36l4.51-3.12c.23-.16.55-.06.67.2,2.09,4.6,6.97,6.64,12.63,6.64,6.67,0,9.84-2.68,9.84-6.02,0-3.01-2.52-4.8-10.65-6.26-11.54-2.12-15.77-5.28-15.77-12.12s6.1-12.19,16.02-12.19c8.54,0,13.63,2.97,15.98,9.39.07.2,0,.45-.2.56l-4.73,2.78c-.25.15-.55.01-.65-.25-1.84-4.97-5.44-6.8-10.39-6.8-5.45,0-9.51,2.93-9.51,5.94,0,3.49,2.68,5.28,10.98,6.67,11.39,1.87,15.45,5.28,15.45,11.95,0,7.07-6.58,12.03-16.99,12.03-7.34,0-14.12-2.81-17.3-8.83-.12-.2-.04-.46.15-.59h-.01Z"></path><path d="M550.67,4.28c.35-2,1.73-3.39,3.73-3.75,3.67-.65,6.52,2.23,5.84,5.89-.36,1.96-1.71,3.3-3.67,3.68-3.65.68-6.52-2.15-5.9-5.81M558.25,55.64h-5.6c-.25,0-.45-.2-.45-.45V15.46c0-.25.2-.45.45-.45h5.6c.25,0,.45.2.45.45v39.73c0,.25-.2.45-.45.45"></path><path class="cls-2" d="M558.25,55.96h-5.6c-.25,0-.45-.2-.45-.45V15.77c0-.25.2-.45.45-.45h5.6c.25,0,.45.2.45.45v39.74c0,.25-.2.45-.45.45Z"></path><path d="M602.21,25.5l-5.32,2.52c-.25.12-.52,0-.61-.26-1.77-4.9-5.22-7.57-10.64-7.57-8.13,0-13,5.77-13,15.45s4.89,15.45,13,15.45c6.15,0,9.93-2.83,11.26-7.89.07-.26.33-.41.58-.32l5.1,1.8c.25.09.38.36.28.61-2.83,7.2-8.63,11.51-17.06,11.51-12.28,0-19.69-7.97-19.69-21.14s7.41-21.14,19.69-21.14c8.19,0,13.58,3.97,16.63,10.4.12.23,0,.51-.22.62v-.06Z"></path><path class="cls-2" d="M602.21,25.5l-5.32,2.52c-.25.12-.52,0-.61-.26-1.77-4.9-5.22-7.57-10.64-7.57-8.13,0-13,5.77-13,15.45s4.89,15.45,13,15.45c6.15,0,9.93-2.83,11.26-7.89.07-.26.33-.41.58-.32l5.1,1.8c.25.09.38.36.28.61-2.83,7.2-8.63,11.51-17.06,11.51-12.28,0-19.69-7.97-19.69-21.14s7.41-21.14,19.69-21.14c8.19,0,13.58,3.97,16.63,10.4.12.23,0,.51-.22.62v-.06Z"></path><path d="M352.92,15.16c0,.24.2.45.45.45h14.04c.25,0,.45.2.45.45v4.67c0,.24-.2.45-.45.45h-14.04c-.25,0-.45.2-.45.45v23.2c0,3.96,2.51,5.9,6.06,5.9,2.66,0,4.65-.95,6.39-2.53.23-.22.6-.14.72.14l1.89,4.49h-.01c.07.2.03.42-.12.55-2.49,2.13-5.88,3.41-10.17,3.41-5.98,0-11.15-2.98-11.23-10.83v-24.34c0-.25-.2-.45-.45-.45h-7.17c-.24,0-.45-.2-.45-.45v-4.67c0-.25.2-.45.45-.45h7.17c.25,0,.45-.2.45-.45V6.64c0-.2.13-.39.33-.43h6.05"></path><path class="cls-2" d="M352.92,15.16c0,.24.2.45.45.45h14.04c.25,0,.45.2.45.45v4.67c0,.24-.2.45-.45.45h-14.04c-.25,0-.45.2-.45.45v23.2c0,3.96,2.51,5.9,6.06,5.9,2.66,0,4.65-.95,6.39-2.53.23-.22.6-.14.72.14l1.89,4.49h-.01c.07.2.03.42-.12.55-2.49,2.13-5.88,3.41-10.17,3.41-5.98,0-11.15-2.98-11.23-10.83v-24.34c0-.25-.2-.45-.45-.45h-7.17c-.24,0-.45-.2-.45-.45v-4.67c0-.25.2-.45.45-.45h7.17c.25,0,.45-.2.45-.45V6.64c0-.2.13-.39.33-.43h5.86c.2.05.33.24.33.44v8.53"></path><path d="M219.79,78.99c0,.2.17.37.37.37h11.71c.21,0,.37.17.37.37v3.89c0,.2-.17.37-.37.37h-11.71c-.21,0-.37.17-.37.37v19.36c0,3.3,2.09,4.93,5.06,4.93,2.22,0,3.88-.79,5.33-2.11.19-.18.5-.12.6.12l1.57,3.75h-.01c.06.17.02.35-.1.46-2.08,1.78-4.9,2.85-8.48,2.85-4.99,0-9.3-2.49-9.37-9.04v-20.3c0-.21-.17-.37-.37-.37h-5.98c-.2,0-.37-.17-.37-.37v-3.89c0-.21.17-.37.37-.37h5.98c.21,0,.37-.17.37-.37v-6.84c0-.17.11-.32.28-.36h5.04"></path><path class="cls-2" d="M219.79,78.99c0,.2.17.37.37.37h11.71c.21,0,.37.17.37.37v3.89c0,.2-.17.37-.37.37h-11.71c-.21,0-.37.17-.37.37v19.36c0,3.3,2.09,4.93,5.06,4.93,2.22,0,3.88-.79,5.33-2.11.19-.18.5-.12.6.12l1.57,3.75h-.01c.06.17.02.35-.1.46-2.08,1.78-4.9,2.85-8.48,2.85-4.99,0-9.3-2.49-9.37-9.04v-20.3c0-.21-.17-.37-.37-.37h-5.98c-.2,0-.37-.17-.37-.37v-3.89c0-.21.17-.37.37-.37h5.98c.21,0,.37-.17.37-.37v-6.84c0-.17.11-.32.28-.36h4.89c.17.04.28.2.28.36v6.84"></path><path d="M255.12,79.6l-.92,4.46c-.05.24-.3.36-.53.26-.98-.42-2.29-.67-3.79-.67-4.03,0-8.85,3.55-8.85,11.07v17.74c0,.2-.17.37-.37.37h-4.62c-.2,0-.37-.17-.37-.37v-32.79c0-.2.17-.37.37-.37h3.65c.19,0,.35.14.37.32l.54,4.01c.05.35.51.44.69.14,1.99-3.41,5.43-5.14,10.21-5.14,1.04,0,2.42.11,3.42.54.17.07.24.25.2.43"></path><path class="cls-2" d="M255.12,79.6l-.92,4.46c-.05.24-.3.36-.53.26-.98-.42-2.29-.67-3.79-.67-4.03,0-8.85,3.55-8.85,11.07v17.74c0,.2-.17.37-.37.37h-4.62c-.2,0-.37-.17-.37-.37v-32.79c0-.2.17-.37.37-.37h3.65c.19,0,.35.14.37.32l.54,4.01c.05.35.51.44.69.14,1.99-3.41,5.43-5.14,10.21-5.14,1.04,0,2.42.11,3.42.54.17.07.24.25.2.43Z"></path><path d="M289.24,109.3l-.28,3.48c-.01.16-.11.28-.25.32-.94.31-2.26.6-3.81.6-3.06,0-5.14-1.05-5.91-4.21-.07-.3-.46-.36-.65-.12-2.28,2.76-6.34,4.33-10.36,4.33-6.33,0-11.46-2.97-11.46-9.04,0-5.06,4.44-9.02,13.14-10.51l8.64-1.43c.18-.04.31-.19.31-.37v-1.56c0-4.45-2.83-7.41-7.88-7.41-4.29,0-7.58,2.02-9.44,5.98-.1.22-.37.29-.56.16l-3.36-2.45c-.14-.1-.19-.29-.13-.44,1.85-4.83,7.09-7.94,13.5-7.94,7.68,0,13.28,3.64,13.28,11.46v16.58c0,1.62.67,2.43,2.56,2.43.71,0,1.5-.08,2.21-.23.25-.05.47.14.45.4v-.02ZM278.64,101.71v-4.19c0-.24-.22-.42-.45-.37l-7.1,1.33c-5.94,1.08-8.96,3.03-8.96,6.2,0,2.83,2.29,4.31,6.14,4.31,5.38,0,10.38-2.82,10.38-7.28h-.01Z"></path><path class="cls-2" d="M289.24,109.3l-.28,3.48c-.01.16-.11.28-.25.32-.94.31-2.26.6-3.81.6-3.06,0-5.14-1.05-5.91-4.21-.07-.3-.46-.36-.65-.12-2.28,2.76-6.34,4.33-10.36,4.33-6.33,0-11.46-2.97-11.46-9.04,0-5.06,4.44-9.02,13.14-10.51l8.64-1.43c.18-.04.31-.19.31-.37v-1.56c0-4.45-2.83-7.41-7.88-7.41-4.29,0-7.58,2.02-9.44,5.98-.1.22-.37.29-.56.16l-3.36-2.45c-.14-.1-.19-.29-.13-.44,1.85-4.83,7.09-7.94,13.5-7.94,7.68,0,13.28,3.64,13.28,11.46v16.58c0,1.62.67,2.43,2.56,2.43.71,0,1.5-.08,2.21-.23.25-.05.47.14.45.4v-.02ZM278.64,101.71v-4.19c0-.24-.22-.42-.45-.37l-7.1,1.33c-5.94,1.08-8.96,3.03-8.96,6.2,0,2.83,2.29,4.31,6.14,4.31,5.38,0,10.38-2.82,10.38-7.28h-.01Z"></path><path d="M321.84,91.38v21.09c0,.2-.17.37-.37.37h-4.62c-.2,0-.37-.17-.37-.37v-19.22c0-7.45-3.61-9.93-8.26-9.93-4.89,0-10.4,3.09-10.4,11.68v17.47c0,.2-.17.37-.37.37h-4.62c-.2,0-.37-.17-.37-.37v-32.8c0-.2.17-.37.37-.37h3.97c.2,0,.36.15.37.35l.24,3.72c.02.36.48.48.68.19,2.44-3.52,6.41-4.94,10.67-4.94,7.18,0,13.08,4.09,13.08,12.75h-.01Z"></path><path class="cls-2" d="M321.84,91.38v21.09c0,.2-.17.37-.37.37h-4.62c-.2,0-.37-.17-.37-.37v-19.22c0-7.45-3.61-9.93-8.26-9.93-4.89,0-10.4,3.09-10.4,11.68v17.47c0,.2-.17.37-.37.37h-4.62c-.2,0-.37-.17-.37-.37v-32.8c0-.2.17-.37.37-.37h3.97c.2,0,.36.15.37.35l.24,3.72c.02.36.48.48.68.19,2.44-3.52,6.41-4.94,10.67-4.94,7.18,0,13.08,4.09,13.08,12.75h-.01Z"></path><path d="M327.48,105.9l3.72-2.58c.19-.13.46-.05.55.17,1.74,3.81,5.78,5.5,10.47,5.5,5.53,0,8.16-2.22,8.16-4.99,0-2.5-2.09-3.98-8.82-5.19-9.56-1.75-13.07-4.37-13.07-10.04s5.05-10.11,13.26-10.11c7.08,0,11.29,2.46,13.24,7.79.06.17,0,.37-.17.47l-3.92,2.31c-.2.12-.46.01-.54-.2-1.53-4.12-4.51-5.63-8.61-5.63-4.51,0-7.88,2.43-7.88,4.91,0,2.9,2.22,4.37,9.09,5.53,9.44,1.55,12.81,4.37,12.81,9.9,0,5.86-5.47,9.97-14.09,9.97-6.08,0-11.7-2.33-14.33-7.32-.08-.17-.04-.38.12-.49h.01Z"></path><path class="cls-2" d="M327.48,105.9l3.72-2.58c.19-.13.46-.05.55.17,1.74,3.81,5.78,5.5,10.47,5.5,5.53,0,8.16-2.22,8.16-4.99,0-2.5-2.09-3.98-8.82-5.19-9.56-1.75-13.07-4.37-13.07-10.04s5.05-10.11,13.26-10.11c7.08,0,11.29,2.46,13.24,7.79.06.17,0,.37-.17.47l-3.92,2.31c-.2.12-.46.01-.54-.2-1.53-4.12-4.51-5.63-8.61-5.63-4.51,0-7.88,2.43-7.88,4.91,0,2.9,2.22,4.37,9.09,5.53,9.44,1.55,12.81,4.37,12.81,9.9,0,5.86-5.47,9.97-14.09,9.97-6.08,0-11.7-2.33-14.33-7.32-.08-.17-.04-.38.12-.49h.01Z"></path><path d="M390.31,87.79l-4.41,2.08c-.2.1-.43,0-.52-.22-1.47-4.06-4.33-6.27-8.82-6.27-6.74,0-10.79,4.78-10.79,12.8s4.05,12.8,10.79,12.8c5.09,0,8.22-2.34,9.32-6.54.06-.22.28-.34.48-.26l4.23,1.49c.2.07.31.3.23.51-2.34,5.97-7.15,9.53-14.14,9.53-10.18,0-16.3-6.6-16.3-17.52s6.14-17.52,16.3-17.52c6.79,0,11.27,3.29,13.78,8.61.08.19,0,.42-.18.52h.02Z"></path><path class="cls-2" d="M390.31,87.79l-4.41,2.08c-.2.1-.43,0-.52-.22-1.47-4.06-4.33-6.27-8.82-6.27-6.74,0-10.79,4.78-10.79,12.8s4.05,12.8,10.79,12.8c5.09,0,8.22-2.34,9.32-6.54.06-.22.28-.34.48-.26l4.23,1.49c.2.07.31.3.23.51-2.34,5.97-7.15,9.53-14.14,9.53-10.18,0-16.3-6.6-16.3-17.52s6.14-17.52,16.3-17.52c6.79,0,11.27,3.29,13.78,8.61.08.19,0,.42-.18.52h.02Z"></path><path d="M416.97,79.6l-.92,4.47c-.05.24-.3.36-.53.26-.98-.42-2.29-.67-3.78-.67-4.03,0-8.87,3.55-8.87,11.07v17.74c0,.2-.17.37-.37.37h-4.62c-.2,0-.37-.17-.37-.37v-32.79c0-.2.17-.37.37-.37h3.65c.19,0,.35.14.37.32l.54,4.01c.05.35.51.44.69.14,1.99-3.41,5.42-5.14,10.21-5.14,1.04,0,2.43.11,3.42.54.17.07.24.25.2.43h0Z"></path><path class="cls-2" d="M416.97,79.6l-.92,4.47c-.05.24-.3.36-.53.26-.98-.42-2.29-.67-3.78-.67-4.03,0-8.87,3.55-8.87,11.07v17.74c0,.2-.17.37-.37.37h-4.62c-.2,0-.37-.17-.37-.37v-32.79c0-.2.17-.37.37-.37h3.65c.19,0,.35.14.37.32l.54,4.01c.05.35.51.44.69.14,1.99-3.41,5.42-5.14,10.21-5.14,1.04,0,2.43.11,3.42.54.17.07.24.25.2.43h0Z"></path><path d="M426.63,112.86h-4.62c-.2,0-.37-.17-.37-.37v-32.79c0-.2.17-.37.37-.37h4.62c.2,0,.37.17.37.37v32.79c0,.2-.17.37-.37.37"></path><path class="cls-2" d="M426.63,112.86h-4.62c-.2,0-.37-.17-.37-.37v-32.79c0-.2.17-.37.37-.37h4.62c.2,0,.37.17.37.37v32.79c0,.2-.17.37-.37.37Z"></path><path d="M466.09,96.19c0,10.98-6.01,17.52-15.37,17.52-4.57,0-8.29-1.97-10.51-4.93-.22-.29-.67-.13-.67.23v17.81c0,.2-.17.37-.37.37h-4.64c-.2,0-.37-.17-.37-.37v-47.09c0-.21.17-.37.37-.37h3.99c.2,0,.36.16.37.36l.25,4.27c.02.36.48.49.68.19,2.15-3.27,6.09-5.49,10.91-5.49,9.36,0,15.37,6.54,15.37,17.52h-.01ZM460.7,96.19c0-7.82-3.99-12.8-10.59-12.8s-10.58,4.78-10.58,12.4v.81c0,7.61,4.17,12.4,10.58,12.4s10.59-4.99,10.59-12.8h0Z"></path><path class="cls-2" d="M466.09,96.19c0,10.98-6.01,17.52-15.37,17.52-4.57,0-8.29-1.97-10.51-4.93-.22-.29-.67-.13-.67.23v17.81c0,.2-.17.37-.37.37h-4.64c-.2,0-.37-.17-.37-.37v-47.09c0-.21.17-.37.37-.37h3.99c.2,0,.36.16.37.36l.25,4.27c.02.36.48.49.68.19,2.15-3.27,6.09-5.49,10.91-5.49,9.36,0,15.37,6.54,15.37,17.52h-.01ZM460.7,96.19c0-7.82-3.99-12.8-10.59-12.8s-10.58,4.78-10.58,12.4v.81c0,7.61,4.17,12.4,10.58,12.4s10.59-4.99,10.59-12.8h0Z"></path><path d="M498.71,112.86h-4.62c-.2,0-.37-.17-.37-.37v-32.79c0-.2.17-.37.37-.37h4.62c.2,0,.37.17.37.37v32.79c0,.2-.17.37-.37.37"></path><path class="cls-2" d="M498.71,112.86h-4.62c-.2,0-.37-.17-.37-.37v-32.79c0-.2.17-.37.37-.37h4.62c.2,0,.37.17.37.37v32.79c0,.2-.17.37-.37.37Z"></path><path d="M538.39,96.19c0,10.92-6.14,17.52-16.3,17.52s-16.3-6.6-16.3-17.52,6.14-17.52,16.3-17.52,16.3,6.61,16.3,17.52M511.16,96.19c0,8.01,4.12,12.87,10.92,12.87s10.92-4.85,10.92-12.87-4.12-12.87-10.92-12.87-10.92,4.85-10.92,12.87"></path><path class="cls-2" d="M538.39,96.19c0,10.92-6.14,17.52-16.3,17.52s-16.3-6.6-16.3-17.52,6.14-17.52,16.3-17.52,16.3,6.61,16.3,17.52ZM511.16,96.19c0,8.01,4.12,12.87,10.92,12.87s10.92-4.85,10.92-12.87-4.12-12.87-10.92-12.87-10.92,4.85-10.92,12.87Z"></path><path d="M572.54,91.38v21.09c0,.2-.17.37-.37.37h-4.62c-.2,0-.37-.17-.37-.37v-19.22c0-7.45-3.63-9.93-8.27-9.93-4.89,0-10.4,3.09-10.4,11.68v17.47c0,.2-.17.37-.37.37h-4.62c-.2,0-.37-.17-.37-.37v-32.8c0-.2.17-.37.37-.37h3.97c.2,0,.36.15.37.35l.24,3.72c.02.35.48.48.68.19,2.44-3.52,6.41-4.94,10.66-4.94,7.19,0,13.09,4.09,13.09,12.75Z"></path><path class="cls-2" d="M572.54,91.38v21.09c0,.2-.17.37-.37.37h-4.62c-.2,0-.37-.17-.37-.37v-19.22c0-7.45-3.63-9.93-8.27-9.93-4.89,0-10.4,3.09-10.4,11.68v17.47c0,.2-.17.37-.37.37h-4.62c-.2,0-.37-.17-.37-.37v-32.8c0-.2.17-.37.37-.37h3.97c.2,0,.36.15.37.35l.24,3.72c.02.35.48.48.68.19,2.44-3.52,6.41-4.94,10.66-4.94,7.19,0,13.09,4.09,13.09,12.75Z"></path><path d="M576.2,105.9l3.72-2.58c.19-.13.46-.05.55.17,1.74,3.81,5.78,5.5,10.47,5.5,5.53,0,8.16-2.22,8.16-4.99,0-2.5-2.09-3.98-8.82-5.19-9.56-1.75-13.07-4.37-13.07-10.04s5.05-10.11,13.26-10.11c7.08,0,11.29,2.46,13.24,7.79.06.17,0,.37-.17.47l-3.92,2.31c-.2.12-.46.01-.54-.2-1.53-4.12-4.51-5.63-8.61-5.63-4.51,0-7.88,2.43-7.88,4.91,0,2.9,2.22,4.37,9.09,5.53,9.44,1.55,12.81,4.37,12.81,9.9,0,5.86-5.47,9.97-14.09,9.97-6.08,0-11.7-2.33-14.33-7.32-.08-.17-.04-.38.12-.49h.01Z"></path><path class="cls-2" d="M576.2,105.9l3.72-2.58c.19-.13.46-.05.55.17,1.74,3.81,5.78,5.5,10.47,5.5,5.53,0,8.16-2.22,8.16-4.99,0-2.5-2.09-3.98-8.82-5.19-9.56-1.75-13.07-4.37-13.07-10.04s5.05-10.11,13.26-10.11c7.08,0,11.29,2.46,13.24,7.79.06.17,0,.37-.17.47l-3.92,2.31c-.2.12-.46.01-.54-.2-1.53-4.12-4.51-5.63-8.61-5.63-4.51,0-7.88,2.43-7.88,4.91,0,2.9,2.22,4.37,9.09,5.53,9.44,1.55,12.81,4.37,12.81,9.9,0,5.86-5.47,9.97-14.09,9.97-6.08,0-11.7-2.33-14.33-7.32-.08-.17-.04-.38.12-.49h.01Z"></path><path d="M492.69,70.67c.28-1.53,1.35-2.6,2.89-2.88,2.86-.51,5.07,1.73,4.54,4.58-.28,1.53-1.35,2.6-2.89,2.88-2.85.51-5.07-1.73-4.54-4.58"></path><path d="M420.6,70.54c.28-1.53,1.35-2.6,2.89-2.88,2.86-.51,5.07,1.73,4.54,4.58-.28,1.53-1.35,2.6-2.89,2.88-2.85.51-5.07-1.73-4.54-4.58"></path><path d="M478.26,78.99c0,.2.17.37.37.37h11.71c.21,0,.37.17.37.37v3.89c0,.2-.17.37-.37.37h-11.71c-.21,0-.37.17-.37.37v19.36c0,3.3,2.09,4.93,5.06,4.93,2.22,0,3.88-.79,5.33-2.11.19-.18.5-.12.6.12l1.57,3.75h-.01c.06.17.02.35-.1.46-2.08,1.78-4.9,2.85-8.48,2.85-4.99,0-9.3-2.49-9.37-9.04v-20.3c0-.21-.17-.37-.37-.37h-5.98c-.2,0-.37-.17-.37-.37v-3.89c0-.21.17-.37.37-.37h5.98c.21,0,.37-.17.37-.37v-6.84c0-.17.11-.32.28-.36h5.04"></path><path class="cls-2" d="M478.26,78.99c0,.2.17.37.37.37h11.71c.21,0,.37.17.37.37v3.89c0,.2-.17.37-.37.37h-11.71c-.21,0-.37.17-.37.37v19.36c0,3.3,2.09,4.93,5.06,4.93,2.22,0,3.88-.79,5.33-2.11.19-.18.5-.12.6.12l1.57,3.75h-.01c.06.17.02.35-.1.46-2.08,1.78-4.9,2.85-8.48,2.85-4.99,0-9.3-2.49-9.37-9.04v-20.3c0-.21-.17-.37-.37-.37h-5.98c-.2,0-.37-.17-.37-.37v-3.89c0-.21.17-.37.37-.37h5.98c.21,0,.37-.17.37-.37v-6.84c0-.17.11-.32.28-.36h4.89c.17.04.28.2.28.36v6.84"></path></g></svg>