<svg xmlns="http://www.w3.org/2000/svg" xmlns:xlink="http://www.w3.org/1999/xlink" width="1200" zoomAndPan="magnify" viewBox="0 0 900 247.499998" height="330" preserveAspectRatio="xMidYMid meet" version="1.0"><defs><g/><clipPath id="fe4d31da9f"><path d="M 485 0.0820312 L 561 0.0820312 L 561 74 L 485 74 Z M 485 0.0820312 " clip-rule="nonzero"/></clipPath><clipPath id="984d6d0391"><rect x="0" width="566" y="0" height="92"/></clipPath><clipPath id="4d725be569"><path d="M 219 9.050781 L 318 9.050781 L 318 222.367188 L 219 222.367188 Z M 219 9.050781 " clip-rule="nonzero"/></clipPath><clipPath id="c337ced6e2"><path d="M 93 107 L 248 107 L 248 222.367188 L 93 222.367188 Z M 93 107 " clip-rule="nonzero"/></clipPath><clipPath id="7859737490"><path d="M 836.734375 97.828125 L 869.667969 97.828125 L 869.667969 133.753906 L 836.734375 133.753906 Z M 836.734375 97.828125 " clip-rule="nonzero"/></clipPath></defs><g transform="matrix(1, 0, 0, 1, 330, 78)"><g clip-path="url(#984d6d0391)"><g fill="#ff751f" fill-opacity="1"><g transform="translate(0.847089, 71.765553)"><g><path d="M 23.15625 0 L 7.0625 0 L 7.0625 -69.046875 L 21.21875 -69.046875 L 42.6875 -39.34375 L 42.6875 -39.390625 L 64.46875 -69.046875 L 78.484375 -69.046875 L 78.484375 0 L 62.4375 0 L 62.4375 -43.40625 L 44.71875 -18.578125 L 40.65625 -18.578125 L 23.15625 -43.5625 Z M 23.15625 0 "/></g></g></g><g fill="#ff751f" fill-opacity="1"><g transform="translate(86.382048, 71.765553)"><g><path d="M 36.34375 1.578125 C 32.050781 1.578125 28.066406 0.925781 24.390625 -0.375 C 20.722656 -1.675781 17.507812 -3.554688 14.75 -6.015625 C 11.988281 -8.472656 9.835938 -11.4375 8.296875 -14.90625 C 6.753906 -18.375 5.984375 -22.289062 5.984375 -26.65625 L 5.984375 -69.046875 L 22.03125 -69.046875 L 22.03125 -27.8125 C 22.03125 -25.039062 22.578125 -22.53125 23.671875 -20.28125 C 24.773438 -18.03125 26.394531 -16.253906 28.53125 -14.953125 C 30.664062 -13.648438 33.269531 -13 36.34375 -13 C 39.394531 -13 41.976562 -13.648438 44.09375 -14.953125 C 46.207031 -16.253906 47.8125 -18.019531 48.90625 -20.25 C 50.007812 -22.488281 50.5625 -25.007812 50.5625 -27.8125 L 50.5625 -69.046875 L 66.65625 -69.046875 L 66.65625 -26.65625 C 66.65625 -22.5625 65.941406 -18.796875 64.515625 -15.359375 C 63.097656 -11.921875 61.050781 -8.929688 58.375 -6.390625 C 55.707031 -3.859375 52.507812 -1.894531 48.78125 -0.5 C 45.0625 0.882812 40.914062 1.578125 36.34375 1.578125 Z M 36.34375 1.578125 "/></g></g></g><g fill="#ff751f" fill-opacity="1"><g transform="translate(159.023313, 71.765553)"><g><path d="M 37.21875 0 L 21.21875 0 L 21.21875 -54.71875 L 1.875 -54.71875 L 1.875 -69.046875 L 56.5 -69.046875 L 56.5 -54.71875 L 37.21875 -54.71875 Z M 37.21875 0 "/></g></g></g><g fill="#ff751f" fill-opacity="1"><g transform="translate(217.400281, 71.765553)"><g><path d="M 23.15625 0 L 7.0625 0 L 7.0625 -69.046875 L 37.359375 -69.046875 C 41.015625 -69.046875 44.359375 -68.484375 47.390625 -67.359375 C 50.421875 -66.242188 53.050781 -64.65625 55.28125 -62.59375 C 57.519531 -60.53125 59.25 -58.078125 60.46875 -55.234375 C 61.6875 -52.390625 62.296875 -49.242188 62.296875 -45.796875 C 62.296875 -42.679688 61.753906 -39.800781 60.671875 -37.15625 C 59.585938 -34.519531 58.070312 -32.226562 56.125 -30.28125 C 54.175781 -28.332031 51.863281 -26.785156 49.1875 -25.640625 L 63.921875 0 L 45.484375 0 L 33.40625 -23.09375 L 23.15625 -23.09375 Z M 23.15625 -54.71875 L 23.15625 -36.546875 L 36.703125 -36.546875 C 38.492188 -36.546875 40.097656 -36.941406 41.515625 -37.734375 C 42.941406 -38.535156 44.078125 -39.628906 44.921875 -41.015625 C 45.773438 -42.398438 46.203125 -43.992188 46.203125 -45.796875 C 46.203125 -47.421875 45.773438 -48.90625 44.921875 -50.25 C 44.078125 -51.601562 42.9375 -52.6875 41.5 -53.5 C 40.0625 -54.3125 38.460938 -54.71875 36.703125 -54.71875 Z M 23.15625 -54.71875 "/></g></g></g><g fill="#ff751f" fill-opacity="1"><g transform="translate(282.579434, 71.765553)"><g><path d="M 71.984375 0 L 54.984375 0 L 50.515625 -11.21875 L 21.734375 -11.21875 L 17.265625 0 L 0.25 0 L 28.578125 -69.09375 L 43.65625 -69.09375 Z M 35.59375 -46.140625 L 27 -24.578125 L 45.234375 -24.578125 L 36.65625 -46.140625 L 36.203125 -48.28125 L 36.046875 -48.28125 Z M 35.59375 -46.140625 "/></g></g></g><g fill="#ff751f" fill-opacity="1"><g transform="translate(354.814598, 71.765553)"><g><path d="M 23.15625 0 L 7.0625 0 L 7.0625 -69.046875 L 36.953125 -69.046875 C 40.578125 -69.046875 43.90625 -68.453125 46.9375 -67.265625 C 49.96875 -66.078125 52.597656 -64.414062 54.828125 -62.28125 C 57.054688 -60.15625 58.78125 -57.628906 60 -54.703125 C 61.21875 -51.773438 61.828125 -48.582031 61.828125 -45.125 C 61.828125 -41.40625 61.21875 -38.039062 60 -35.03125 C 58.78125 -32.019531 57.070312 -29.429688 54.875 -27.265625 C 52.675781 -25.097656 50.070312 -23.429688 47.0625 -22.265625 C 44.050781 -21.097656 40.75 -20.515625 37.15625 -20.515625 L 23.15625 -20.515625 Z M 23.15625 -54.71875 L 23.15625 -34.78125 L 36.296875 -34.78125 C 38.054688 -34.78125 39.644531 -35.234375 41.0625 -36.140625 C 42.488281 -37.054688 43.625 -38.300781 44.46875 -39.875 C 45.3125 -41.445312 45.734375 -43.195312 45.734375 -45.125 C 45.734375 -46.75 45.3125 -48.289062 44.46875 -49.75 C 43.625 -51.207031 42.488281 -52.398438 41.0625 -53.328125 C 39.644531 -54.253906 38.054688 -54.71875 36.296875 -54.71875 Z M 23.15625 -54.71875 "/></g></g></g><g fill="#ff751f" fill-opacity="1"><g transform="translate(417.810947, 71.765553)"><g><path d="M 23.15625 0 L 7.0625 0 L 7.0625 -69.046875 L 37.359375 -69.046875 C 41.015625 -69.046875 44.359375 -68.484375 47.390625 -67.359375 C 50.421875 -66.242188 53.050781 -64.65625 55.28125 -62.59375 C 57.519531 -60.53125 59.25 -58.078125 60.46875 -55.234375 C 61.6875 -52.390625 62.296875 -49.242188 62.296875 -45.796875 C 62.296875 -42.679688 61.753906 -39.800781 60.671875 -37.15625 C 59.585938 -34.519531 58.070312 -32.226562 56.125 -30.28125 C 54.175781 -28.332031 51.863281 -26.785156 49.1875 -25.640625 L 63.921875 0 L 45.484375 0 L 33.40625 -23.09375 L 23.15625 -23.09375 Z M 23.15625 -54.71875 L 23.15625 -36.546875 L 36.703125 -36.546875 C 38.492188 -36.546875 40.097656 -36.941406 41.515625 -37.734375 C 42.941406 -38.535156 44.078125 -39.628906 44.921875 -41.015625 C 45.773438 -42.398438 46.203125 -43.992188 46.203125 -45.796875 C 46.203125 -47.421875 45.773438 -48.90625 44.921875 -50.25 C 44.078125 -51.601562 42.9375 -52.6875 41.5 -53.5 C 40.0625 -54.3125 38.460938 -54.71875 36.703125 -54.71875 Z M 23.15625 -54.71875 "/></g></g></g><g clip-path="url(#fe4d31da9f)"><g fill="#ff751f" fill-opacity="1"><g transform="translate(482.990149, 71.765553)"><g><path d="M 40.203125 1.578125 C 36.046875 1.578125 32.085938 0.96875 28.328125 -0.25 C 24.566406 -1.46875 21.117188 -3.175781 17.984375 -5.375 C 14.859375 -7.582031 12.15625 -10.195312 9.875 -13.21875 C 7.59375 -16.25 5.816406 -19.570312 4.546875 -23.1875 C 3.273438 -26.8125 2.640625 -30.625 2.640625 -34.625 C 2.640625 -38.644531 3.273438 -42.46875 4.546875 -46.09375 C 5.816406 -49.71875 7.59375 -53.023438 9.875 -56.015625 C 12.15625 -59.015625 14.859375 -61.617188 17.984375 -63.828125 C 21.117188 -66.046875 24.566406 -67.753906 28.328125 -68.953125 C 32.085938 -70.160156 36.046875 -70.765625 40.203125 -70.765625 C 44.335938 -70.765625 48.273438 -70.160156 52.015625 -68.953125 C 55.753906 -67.753906 59.1875 -66.046875 62.3125 -63.828125 C 65.445312 -61.617188 68.164062 -59.015625 70.46875 -56.015625 C 72.769531 -53.023438 74.550781 -49.71875 75.8125 -46.09375 C 77.082031 -42.46875 77.71875 -38.644531 77.71875 -34.625 C 77.71875 -30.625 77.082031 -26.8125 75.8125 -23.1875 C 74.550781 -19.570312 72.769531 -16.25 70.46875 -13.21875 C 68.164062 -10.195312 65.445312 -7.582031 62.3125 -5.375 C 59.1875 -3.175781 55.753906 -1.46875 52.015625 -0.25 C 48.273438 0.96875 44.335938 1.578125 40.203125 1.578125 Z M 40.203125 -13.140625 C 43.179688 -13.140625 45.972656 -13.664062 48.578125 -14.71875 C 51.179688 -15.769531 53.460938 -17.257812 55.421875 -19.1875 C 57.390625 -21.113281 58.925781 -23.378906 60.03125 -25.984375 C 61.132812 -28.597656 61.6875 -31.460938 61.6875 -34.578125 C 61.6875 -37.679688 61.132812 -40.546875 60.03125 -43.171875 C 58.925781 -45.796875 57.390625 -48.070312 55.421875 -50 C 53.460938 -51.925781 51.179688 -53.414062 48.578125 -54.46875 C 45.972656 -55.519531 43.179688 -56.046875 40.203125 -56.046875 C 37.222656 -56.046875 34.429688 -55.519531 31.828125 -54.46875 C 29.222656 -53.414062 26.9375 -51.925781 24.96875 -50 C 23.007812 -48.070312 21.476562 -45.796875 20.375 -43.171875 C 19.28125 -40.546875 18.734375 -37.679688 18.734375 -34.578125 C 18.734375 -31.460938 19.289062 -28.597656 20.40625 -25.984375 C 21.519531 -23.378906 23.054688 -21.113281 25.015625 -19.1875 C 26.984375 -17.257812 29.257812 -15.769531 31.84375 -14.71875 C 34.4375 -13.664062 37.222656 -13.140625 40.203125 -13.140625 Z M 40.203125 -13.140625 "/></g></g></g></g></g></g><path fill="#ff751f" d="M 14.691406 115.824219 C 19.34375 115.824219 23.117188 112.050781 23.117188 107.398438 C 23.117188 102.742188 19.34375 98.972656 14.691406 98.972656 L 11.507812 98.972656 C 8.496094 98.972656 5.714844 100.578125 4.210938 103.183594 C 0.96875 108.800781 5.019531 115.824219 11.507812 115.824219 L 14.691406 115.824219 " fill-opacity="1" fill-rule="nonzero"/><path fill="#ff751f" d="M 41.449219 115.824219 L 74.140625 115.824219 C 78.796875 115.824219 82.566406 112.050781 82.566406 107.398438 C 82.566406 102.742188 78.796875 98.972656 74.140625 98.972656 L 41.449219 98.972656 C 36.796875 98.972656 33.023438 102.742188 33.023438 107.398438 C 33.023438 112.050781 36.796875 115.824219 41.449219 115.824219 " fill-opacity="1" fill-rule="nonzero"/><path fill="#f7941e" d="M 34.523438 151.058594 C 34.710938 151.066406 34.898438 151.074219 35.085938 151.074219 L 96.082031 151.074219 C 100.734375 151.074219 104.507812 147.304688 104.507812 142.648438 C 104.507812 137.996094 100.734375 134.222656 96.082031 134.222656 L 51.550781 134.222656 C 45.335938 139.257812 39.628906 144.898438 34.523438 151.058594 " fill-opacity="1" fill-rule="nonzero"/><g clip-path="url(#4d725be569)"><path fill="#ff751f" d="M 315.582031 117.039062 L 276.871094 49.988281 C 282.191406 44.761719 297.578125 28.125 299.347656 9.054688 C 299.34375 9.066406 284.28125 60.859375 219.859375 60.074219 L 250.640625 131.527344 C 256.941406 146.148438 253.238281 162.5625 242.578125 173.128906 C 240.890625 174.804688 239.027344 176.324219 237.003906 177.671875 C 243.296875 191.363281 247.101562 206.433594 247.839844 222.304688 L 254.804688 222.304688 C 260.703125 222.304688 266.15625 219.160156 269.105469 214.046875 L 315.582031 133.550781 C 318.53125 128.441406 318.53125 122.148438 315.582031 117.039062 " fill-opacity="1" fill-rule="nonzero"/></g><path fill="#ff751f" d="M 79 80.570312 L 109.292969 80.570312 C 113.945312 80.570312 117.71875 76.796875 117.71875 72.144531 C 117.71875 67.492188 113.945312 63.71875 109.292969 63.71875 L 78.785156 63.71875 C 75.304688 63.71875 72.132812 65.863281 70.882812 69.222656 C 68.578125 75.402344 72.402344 80.570312 79 80.570312 " fill-opacity="1" fill-rule="nonzero"/><path fill="#ff751f" d="M 27.789062 146.863281 C 29.199219 149.304688 31.730469 150.871094 34.523438 151.058594 C 39.628906 144.898438 45.335938 139.257812 51.550781 134.222656 L 35.085938 134.222656 C 28.601562 134.222656 24.546875 141.246094 27.789062 146.863281 " fill-opacity="1" fill-rule="nonzero"/><g clip-path="url(#c337ced6e2)"><path fill="#f7941e" d="M 230.988281 180.941406 C 211.917969 189.160156 189.792969 180.363281 181.574219 161.292969 C 175.890625 148.105469 178.34375 133.46875 186.695312 122.96875 C 169.183594 113.058594 148.945312 107.398438 127.386719 107.398438 C 115.773438 107.398438 104.542969 109.042969 93.914062 112.105469 C 95.425781 114.347656 97.992188 115.824219 100.902344 115.824219 L 154.070312 115.824219 C 159.0625 115.824219 163.308594 119.703125 163.488281 124.6875 C 163.671875 129.921875 159.484375 134.222656 154.292969 134.222656 L 122.839844 134.222656 C 118.1875 134.222656 114.414062 137.996094 114.414062 142.648438 C 114.414062 147.304688 118.1875 151.074219 122.839844 151.074219 L 142.277344 151.074219 C 147.265625 151.074219 151.515625 154.953125 151.691406 159.9375 C 151.878906 165.171875 147.691406 169.476562 142.496094 169.476562 L 122.351562 169.476562 C 115.753906 169.476562 111.929688 174.644531 114.230469 180.824219 C 115.480469 184.183594 118.652344 186.328125 122.132812 186.328125 L 166.804688 186.328125 C 171.792969 186.328125 176.039062 190.207031 176.21875 195.191406 C 176.402344 200.425781 172.214844 204.726562 167.023438 204.726562 L 142.171875 204.726562 L 147.554688 214.046875 C 150.503906 219.160156 155.953125 222.304688 161.855469 222.304688 L 247.839844 222.304688 C 247.101562 206.433594 243.296875 191.363281 237.003906 177.671875 C 235.132812 178.921875 233.128906 180.019531 230.988281 180.941406 " fill-opacity="1" fill-rule="nonzero"/></g><path fill="#ff751f" d="M 186.695312 122.96875 C 190.425781 118.277344 195.332031 114.414062 201.222656 111.875 C 204.410156 110.5 207.679688 109.605469 210.957031 109.152344 C 216.410156 108.394531 221.875 108.867188 226.996094 110.417969 L 209.042969 68.730469 L 196.417969 39.433594 C 196.417969 39.433594 232.011719 42.277344 264.109375 31.164062 C 261.410156 29.320312 258.183594 28.28125 254.804688 28.28125 L 161.855469 28.28125 C 155.953125 28.28125 150.503906 31.429688 147.554688 36.539062 L 142.484375 45.320312 L 161.132812 45.320312 C 166.121094 45.320312 170.367188 49.199219 170.546875 54.183594 C 170.730469 59.417969 166.542969 63.71875 161.351562 63.71875 L 136.050781 63.71875 C 131.398438 63.71875 127.625 67.492188 127.625 72.144531 C 127.625 76.796875 131.398438 80.570312 136.050781 80.570312 L 191.109375 80.570312 C 196.097656 80.570312 200.347656 84.449219 200.523438 89.4375 C 200.710938 94.667969 196.523438 98.972656 191.332031 98.972656 L 100.902344 98.972656 C 96.246094 98.972656 92.476562 102.742188 92.476562 107.398438 C 92.476562 109.140625 93.003906 110.761719 93.914062 112.105469 C 104.542969 109.042969 115.773438 107.398438 127.386719 107.398438 C 148.945312 107.398438 169.183594 113.058594 186.695312 122.96875 " fill-opacity="1" fill-rule="nonzero"/><g clip-path="url(#7859737490)"><path fill="#ff751f" d="M 854.589844 132.246094 L 854.589844 99.101562 C 854.589844 98.398438 854.019531 97.828125 853.3125 97.828125 C 852.609375 97.828125 852.039062 98.398438 852.039062 99.101562 L 852.039062 132.246094 C 852.039062 132.949219 852.609375 133.519531 853.3125 133.519531 C 854.019531 133.519531 854.589844 132.949219 854.589844 132.246094 Z M 859.6875 125.871094 L 859.6875 105.476562 C 859.6875 104.773438 859.117188 104.199219 858.414062 104.199219 C 857.710938 104.199219 857.136719 104.773438 857.136719 105.476562 L 857.136719 125.871094 C 857.136719 126.574219 857.710938 127.144531 858.414062 127.144531 C 859.117188 127.144531 859.6875 126.574219 859.6875 125.871094 Z M 849.488281 125.871094 L 849.488281 105.476562 C 849.488281 104.773438 848.917969 104.199219 848.214844 104.199219 C 847.511719 104.199219 846.941406 104.773438 846.941406 105.476562 L 846.941406 125.871094 C 846.941406 126.574219 847.511719 127.144531 848.214844 127.144531 C 848.917969 127.144531 849.488281 126.574219 849.488281 125.871094 Z M 864.785156 122.046875 L 864.785156 109.300781 C 864.785156 108.597656 864.214844 108.023438 863.511719 108.023438 C 862.808594 108.023438 862.238281 108.597656 862.238281 109.300781 L 862.238281 122.046875 C 862.238281 122.75 862.808594 123.320312 863.511719 123.320312 C 864.214844 123.320312 864.785156 122.75 864.785156 122.046875 Z M 844.390625 122.046875 L 844.390625 109.300781 C 844.390625 108.597656 843.820312 108.023438 843.117188 108.023438 C 842.414062 108.023438 841.839844 108.597656 841.839844 109.300781 L 841.839844 122.046875 C 841.839844 122.75 842.414062 123.320312 843.117188 123.320312 C 843.820312 123.320312 844.390625 122.75 844.390625 122.046875 Z M 839.292969 119.496094 L 839.292969 111.847656 C 839.292969 111.144531 838.71875 110.574219 838.015625 110.574219 C 837.3125 110.574219 836.742188 111.144531 836.742188 111.847656 L 836.742188 119.496094 C 836.742188 120.203125 837.3125 120.773438 838.015625 120.773438 C 838.71875 120.773438 839.292969 120.203125 839.292969 119.496094 Z M 869.886719 119.496094 L 869.886719 111.847656 C 869.886719 111.144531 869.316406 110.574219 868.609375 110.574219 C 867.90625 110.574219 867.335938 111.144531 867.335938 111.847656 L 867.335938 119.496094 C 867.335938 120.203125 867.90625 120.773438 868.609375 120.773438 C 869.316406 120.773438 869.886719 120.203125 869.886719 119.496094 Z M 869.886719 119.496094 " fill-opacity="1" fill-rule="evenodd"/></g></svg>