<svg xmlns="http://www.w3.org/2000/svg" xmlns:xlink="http://www.w3.org/1999/xlink" width="500" zoomAndPan="magnify" viewBox="0 0 375 374.999991" height="500" preserveAspectRatio="xMidYMid meet" version="1.0"><defs><clipPath id="b931e8a1b4"><path d="M 256 65.441406 L 369 65.441406 L 369 309.191406 L 256 309.191406 Z M 256 65.441406 " clip-rule="nonzero"/></clipPath><clipPath id="02e30cc54c"><path d="M 112 178 L 289 178 L 289 309.191406 L 112 309.191406 Z M 112 178 " clip-rule="nonzero"/></clipPath></defs><path fill="#ff751f" d="M 21.441406 187.671875 C 26.769531 187.671875 31.089844 183.351562 31.089844 178.023438 C 31.089844 172.695312 26.769531 168.378906 21.441406 168.378906 L 17.796875 168.378906 C 14.351562 168.378906 11.167969 170.21875 9.445312 173.203125 C 5.730469 179.632812 10.371094 187.671875 17.796875 187.671875 L 21.441406 187.671875 " fill-opacity="1" fill-rule="nonzero"/><path fill="#ff751f" d="M 52.074219 187.671875 L 89.5 187.671875 C 94.824219 187.671875 99.144531 183.351562 99.144531 178.023438 C 99.144531 172.695312 94.824219 168.378906 89.5 168.378906 L 52.074219 168.378906 C 46.75 168.378906 42.429688 172.695312 42.429688 178.023438 C 42.429688 183.351562 46.75 187.671875 52.074219 187.671875 " fill-opacity="1" fill-rule="nonzero"/><path fill="#f7941e" d="M 44.144531 228.003906 C 44.359375 228.015625 44.574219 228.023438 44.789062 228.023438 L 114.613281 228.023438 C 119.941406 228.023438 124.257812 223.707031 124.257812 218.378906 C 124.257812 213.054688 119.941406 208.730469 114.613281 208.730469 L 63.640625 208.730469 C 56.523438 214.496094 49.988281 220.957031 44.144531 228.003906 " fill-opacity="1" fill-rule="nonzero"/><g clip-path="url(#b931e8a1b4)"><path fill="#ff751f" d="M 365.882812 189.058594 L 321.570312 112.304688 C 327.660156 106.324219 345.273438 87.28125 347.300781 65.449219 C 347.296875 65.464844 330.050781 124.75 256.304688 123.851562 L 291.539062 205.644531 C 298.753906 222.382812 294.515625 241.171875 282.3125 253.273438 C 280.378906 255.1875 278.25 256.929688 275.933594 258.472656 C 283.136719 274.144531 287.492188 291.394531 288.335938 309.5625 L 296.308594 309.5625 C 303.0625 309.5625 309.304688 305.960938 312.679688 300.113281 L 365.882812 207.960938 C 369.261719 202.113281 369.261719 194.910156 365.882812 189.058594 " fill-opacity="1" fill-rule="nonzero"/></g><path fill="#ff751f" d="M 95.058594 147.316406 L 129.738281 147.316406 C 135.0625 147.316406 139.382812 142.996094 139.382812 137.671875 C 139.382812 132.34375 135.0625 128.027344 129.738281 128.027344 L 94.8125 128.027344 C 90.832031 128.027344 87.199219 130.480469 85.765625 134.324219 C 83.128906 141.402344 87.507812 147.316406 95.058594 147.316406 " fill-opacity="1" fill-rule="nonzero"/><path fill="#ff751f" d="M 36.4375 223.203125 C 38.050781 225.996094 40.949219 227.789062 44.144531 228.003906 C 49.988281 220.957031 56.523438 214.496094 63.640625 208.730469 L 44.789062 208.730469 C 37.363281 208.730469 32.722656 216.769531 36.4375 223.203125 " fill-opacity="1" fill-rule="nonzero"/><g clip-path="url(#02e30cc54c)"><path fill="#f7941e" d="M 269.046875 262.214844 C 247.214844 271.621094 221.886719 261.550781 212.476562 239.71875 C 205.972656 224.625 208.78125 207.867188 218.34375 195.847656 C 198.292969 184.503906 175.128906 178.023438 150.449219 178.023438 C 137.152344 178.023438 124.296875 179.90625 112.128906 183.414062 C 113.863281 185.980469 116.800781 187.671875 120.128906 187.671875 L 180.996094 187.671875 C 186.707031 187.671875 191.574219 192.109375 191.773438 197.816406 C 191.988281 203.808594 187.195312 208.730469 181.25 208.730469 L 145.246094 208.730469 C 139.917969 208.730469 135.601562 213.054688 135.601562 218.378906 C 135.601562 223.707031 139.917969 228.023438 145.246094 228.023438 L 167.496094 228.023438 C 173.203125 228.023438 178.070312 232.464844 178.273438 238.171875 C 178.484375 244.160156 173.691406 249.089844 167.746094 249.089844 L 144.683594 249.089844 C 137.132812 249.089844 132.753906 255.003906 135.390625 262.082031 C 136.820312 265.921875 140.453125 268.378906 144.433594 268.378906 L 195.570312 268.378906 C 201.28125 268.378906 206.144531 272.820312 206.347656 278.527344 C 206.5625 284.519531 201.769531 289.441406 195.824219 289.441406 L 167.375 289.441406 L 173.535156 300.113281 C 176.910156 305.960938 183.152344 309.5625 189.90625 309.5625 L 288.335938 309.5625 C 287.492188 291.394531 283.136719 274.144531 275.933594 258.472656 C 273.792969 259.902344 271.496094 261.15625 269.046875 262.214844 " fill-opacity="1" fill-rule="nonzero"/></g><path fill="#ff751f" d="M 218.34375 195.847656 C 222.613281 190.480469 228.230469 186.054688 234.972656 183.152344 C 238.621094 181.578125 242.363281 180.550781 246.117188 180.03125 C 252.355469 179.164062 258.613281 179.707031 264.476562 181.484375 L 243.925781 133.761719 L 229.46875 100.222656 C 229.46875 100.222656 270.214844 103.480469 306.960938 90.757812 C 303.871094 88.644531 300.175781 87.457031 296.308594 87.457031 L 189.90625 87.457031 C 183.152344 87.457031 176.910156 91.0625 173.535156 96.910156 L 167.730469 106.960938 L 189.078125 106.960938 C 194.789062 106.960938 199.652344 111.402344 199.855469 117.109375 C 200.070312 123.097656 195.273438 128.027344 189.332031 128.027344 L 160.367188 128.027344 C 155.042969 128.027344 150.722656 132.34375 150.722656 137.671875 C 150.722656 142.996094 155.042969 147.316406 160.367188 147.316406 L 223.394531 147.316406 C 229.105469 147.316406 233.96875 151.757812 234.171875 157.464844 C 234.382812 163.453125 229.59375 168.378906 223.648438 168.378906 L 120.128906 168.378906 C 114.804688 168.378906 110.484375 172.695312 110.484375 178.023438 C 110.484375 180.019531 111.09375 181.875 112.128906 183.414062 C 124.296875 179.90625 137.152344 178.023438 150.449219 178.023438 C 175.128906 178.023438 198.292969 184.503906 218.34375 195.847656 " fill-opacity="1" fill-rule="nonzero"/></svg>