<svg xmlns="http://www.w3.org/2000/svg" xmlns:xlink="http://www.w3.org/1999/xlink" id="Capa_1" x="0px" y="0px" viewBox="0 0 409.8 286.8" style="enable-background:new 0 0 409.8 286.8;" xml:space="preserve"> <style type="text/css"> .st0{fill:#EE8F40;} .st1{fill:none;stroke:#010001;stroke-width:3;stroke-linecap:round;stroke-linejoin:round;stroke-miterlimit:10;} .st2{fill:#FDF0E9;} .st3{fill:url(#SVGID_1_);} .st4{fill:url(#SVGID_2_);} .st5{fill:url(#SVGID_3_);} .st6{fill:url(#SVGID_4_);} .st7{fill:none;stroke:url(#SVGID_5_);stroke-width:4;stroke-miterlimit:10;} .st8{fill:none;stroke:url(#SVGID_6_);stroke-width:4;stroke-miterlimit:10;} .st9{fill:none;stroke:url(#SVGID_7_);stroke-width:4;stroke-miterlimit:10;} .st10{opacity:0.5;fill:#58B5DB;} .st11{fill:url(#SVGID_8_);} .st12{fill:url(#SVGID_9_);} .st13{fill:url(#SVGID_10_);} .st14{fill:url(#SVGID_11_);} .st15{fill:url(#SVGID_12_);} .st16{fill:url(#SVGID_13_);} .st17{fill:url(#SVGID_14_);} .st18{fill:url(#SVGID_15_);} .st19{fill:url(#SVGID_16_);} .st20{fill:url(#SVGID_17_);} .st21{fill:url(#SVGID_18_);} .st22{fill:url(#SVGID_19_);} .st23{fill:url(#SVGID_20_);} .st24{fill:url(#SVGID_21_);} .st25{fill:url(#SVGID_22_);} .st26{fill:url(#SVGID_23_);} .st27{fill:url(#SVGID_24_);} .st28{fill:url(#SVGID_25_);} .st29{fill:url(#SVGID_26_);} .st30{fill:url(#SVGID_27_);} .st31{fill:url(#SVGID_28_);} .st32{fill:url(#SVGID_29_);} .st33{fill:url(#SVGID_30_);} .st34{fill:url(#SVGID_31_);} .st35{fill:url(#SVGID_32_);} .st36{fill:url(#SVGID_33_);} .st37{fill:url(#SVGID_34_);} .st38{fill:url(#SVGID_35_);} .st39{fill:url(#SVGID_36_);} .st40{fill:url(#SVGID_37_);} .st41{fill:url(#SVGID_38_);} .st42{fill:url(#SVGID_39_);} .st43{fill:url(#SVGID_40_);} .st44{fill:url(#SVGID_41_);} .st45{fill:url(#SVGID_42_);} .st46{fill:url(#SVGID_43_);} .st47{fill:url(#SVGID_44_);} .st48{opacity:0.35;fill:#616060;} .st49{fill:#FFFFFF;} .st50{fill:#B0B6BC;} .st51{fill:#5D4293;} .st52{fill:#126070;} .st53{fill:#E34339;} .st54{opacity:0.1;fill:#616060;} .st55{fill:#E2E5E6;} .st56{fill:#DA6C31;} .st57{fill:url(#price-tag_1_);} .st58{fill:url(#SVGID_45_);} .st59{fill:url(#Shape_51_1_);} .st60{fill:url(#Shape_52_1_);} .st61{fill:url(#SVGID_46_);} .st62{fill:url(#Shape_51_4_);} .st63{fill:url(#Shape_51_5_);} .st64{fill:url(#SVGID_47_);} .st65{fill:url(#Shape_51_6_);} .st66{fill:url(#Shape_52_4_);} .st67{fill:url(#SVGID_48_);} .st68{fill:url(#Shape_51_7_);} .st69{fill:url(#Shape_51_8_);} .st70{fill:url(#SVGID_49_);} .st71{fill:url(#SVGID_50_);} .st72{fill:none;} .st73{fill:url(#SVGID_51_);} .st74{fill:url(#SVGID_52_);} .st75{fill:url(#SVGID_53_);} .st76{fill:url(#SVGID_54_);} .st77{fill:url(#SVGID_55_);} .st78{fill:#EE8A3C;} .st79{fill:url(#SVGID_56_);} .st80{fill:url(#SVGID_57_);} .st81{fill:url(#SVGID_58_);} .st82{fill:url(#SVGID_59_);} .st83{fill:url(#SVGID_60_);} .st84{fill:url(#SVGID_61_);} .st85{fill:url(#SVGID_62_);} .st86{opacity:0.25;fill:#616060;} .st87{fill:#405869;} .st88{fill:#8CCCE6;} .st89{fill:#58B5DB;} .st90{fill:url(#SVGID_63_);} .st91{fill:url(#SVGID_64_);} .st92{fill:url(#SVGID_65_);} .st93{fill:url(#SVGID_66_);} .st94{fill:url(#SVGID_67_);} .st95{fill:url(#SVGID_68_);} .st96{fill:url(#SVGID_69_);} .st97{fill:url(#SVGID_70_);} .st98{fill:url(#SVGID_71_);} .st99{fill:url(#SVGID_72_);} .st100{fill:url(#SVGID_73_);} .st101{fill:url(#SVGID_74_);} .st102{fill:url(#SVGID_75_);} .st103{fill:#F4B380;} .st104{fill:#79C3C5;} .st105{fill:#E9C9E0;} .st106{fill:#1DAFB4;} .st107{fill:none;stroke:url(#SVGID_76_);stroke-width:8;stroke-linecap:round;stroke-linejoin:round;stroke-miterlimit:10;} .st108{fill:#DE5029;} .st109{fill:url(#SVGID_77_);} .st110{fill:url(#SVGID_78_);} .st111{fill:url(#SVGID_79_);} .st112{fill:url(#SVGID_80_);} .st113{fill:url(#SVGID_81_);} .st114{fill:url(#SVGID_82_);} .st115{fill:url(#SVGID_83_);} .st116{fill:url(#SVGID_84_);} .st117{fill:url(#SVGID_85_);} .st118{fill:url(#SVGID_86_);} .st119{fill:url(#SVGID_87_);} .st120{fill:url(#SVGID_88_);} .st121{fill:url(#SVGID_89_);} .st122{fill:url(#SVGID_90_);} .st123{fill:url(#SVGID_91_);} .st124{fill:url(#SVGID_92_);} .st125{fill:url(#SVGID_93_);} .st126{fill:url(#SVGID_94_);} .st127{fill:url(#SVGID_95_);} .st128{fill:url(#SVGID_96_);} .st129{fill:none;stroke:#EE8A3C;stroke-width:6;stroke-miterlimit:10;} .st130{fill:#BD65A3;} .st131{fill:url(#SVGID_97_);} .st132{fill:url(#SVGID_98_);} .st133{fill:url(#SVGID_99_);} .st134{fill:url(#SVGID_100_);} .st135{fill:url(#SVGID_101_);} .st136{fill:url(#SVGID_102_);} .st137{fill:url(#SVGID_103_);} .st138{fill:url(#SVGID_104_);} .st139{fill:url(#SVGID_105_);} .st140{fill:url(#SVGID_106_);} .st141{fill:none;stroke:url(#SVGID_107_);stroke-width:6;stroke-miterlimit:10;} .st142{fill:none;stroke:url(#SVGID_108_);stroke-width:6;stroke-miterlimit:10;} .st143{fill:none;stroke:url(#SVGID_109_);stroke-width:6;stroke-miterlimit:10;} .st144{fill:none;stroke:url(#SVGID_110_);stroke-width:6;stroke-miterlimit:10;} .st145{fill:none;stroke:url(#SVGID_111_);stroke-width:6;stroke-miterlimit:10;} .st146{fill:url(#SVGID_112_);} .st147{fill:url(#SVGID_113_);} .st148{fill:url(#SVGID_114_);} .st149{fill:url(#SVGID_115_);} .st150{fill:url(#SVGID_116_);} .st151{fill:none;stroke:url(#SVGID_117_);stroke-width:4;stroke-miterlimit:10;} .st152{fill:#0088BD;} .st153{fill:#3A8BC7;} .st154{fill:#EFEFEF;} .st155{fill:#008255;} .st156{fill:#0069AC;} .st157{fill:url(#SVGID_118_);} .st158{fill:url(#SVGID_119_);} .st159{fill:url(#SVGID_120_);} .st160{fill:url(#SVGID_121_);} .st161{fill:url(#SVGID_122_);} .st162{fill:url(#SVGID_123_);} .st163{fill:url(#SVGID_124_);} .st164{fill:url(#SVGID_125_);} .st165{fill:url(#SVGID_126_);} .st166{fill:url(#SVGID_127_);} .st167{fill:url(#SVGID_128_);} .st168{fill:url(#SVGID_129_);} .st169{fill:url(#SVGID_130_);} .st170{fill:url(#SVGID_131_);} .st171{fill:url(#SVGID_132_);} .st172{fill:url(#SVGID_133_);} .st173{fill:url(#SVGID_134_);} .st174{fill:url(#SVGID_135_);} .st175{fill:url(#SVGID_136_);} .st176{fill:url(#SVGID_137_);} .st177{fill:url(#SVGID_138_);} .st178{fill:url(#SVGID_139_);} .st179{fill:url(#SVGID_140_);} .st180{fill:url(#SVGID_141_);} .st181{fill:url(#SVGID_142_);} .st182{fill:url(#SVGID_143_);} .st183{fill:url(#SVGID_144_);} .st184{fill:url(#SVGID_145_);} .st185{fill:url(#SVGID_146_);} .st186{fill:url(#SVGID_147_);} .st187{fill:url(#SVGID_148_);} .st188{fill:url(#SVGID_149_);} .st189{fill:url(#SVGID_150_);} .st190{fill:url(#SVGID_151_);} .st191{fill:url(#SVGID_152_);} .st192{fill:#F19C42;} .st193{fill:#D3502C;} .st194{stroke:#000000;stroke-miterlimit:10;} .st195{stroke:#000000;stroke-width:1.4766;stroke-miterlimit:10;} .st196{fill:url(#SVGID_153_);} .st197{fill-rule:evenodd;clip-rule:evenodd;fill:#EE8F42;} .st198{fill-rule:evenodd;clip-rule:evenodd;fill:#FFFFFF;} .st199{fill-rule:evenodd;clip-rule:evenodd;fill:none;} .st200{fill:#EE8F42;} .st201{fill:none;stroke:#FFFFFF;stroke-width:0.216;stroke-miterlimit:2.6131;} .st202{fill-rule:evenodd;clip-rule:evenodd;fill:#EF9228;} .st203{fill:#EF9228;} .st204{fill:#5A8EC7;} .st205{fill-rule:evenodd;clip-rule:evenodd;} .st206{clip-path:url(#SVGID_155_);fill:url(#SVGID_156_);} .st207{fill:#00366F;} .st208{fill:#F6F5F1;} .st209{fill:#E33C10;} .st210{fill:#223D65;} .st211{fill:#FED800;} .st212{fill:#006BB4;} .st213{fill:#1A1600;} .st214{fill:#E44E33;} .st215{fill:#F7F8F8;} .st216{fill:#0F4C98;} .st217{fill:#E34333;} .st218{clip-path:url(#SVGID_158_);} .st219{clip-path:url(#SVGID_160_);fill:none;} .st220{fill-rule:evenodd;clip-rule:evenodd;fill:#EE8F40;} .st221{clip-path:url(#SVGID_162_);fill:url(#SVGID_163_);} .st222{clip-path:url(#SVGID_165_);} .st223{clip-path:url(#SVGID_167_);fill:none;} .st224{fill:#EE915D;} .st225{fill:#EF922A;} .st226{fill:#1E1E1C;} .st227{clip-path:url(#SVGID_169_);fill:url(#SVGID_170_);} .st228{fill:#010001;} .st229{fill:url(#SVGID_171_);} .st230{fill:#31323D;} .st231{fill:none;stroke:#31323D;stroke-width:4;stroke-miterlimit:10;} .st232{fill:none;stroke:#31323D;stroke-width:9;stroke-linecap:round;stroke-linejoin:round;stroke-miterlimit:10;} .st233{fill:url(#SVGID_172_);} .st234{fill:#EE8F40;stroke:#EE8F42;stroke-width:4;stroke-linecap:round;stroke-linejoin:round;stroke-miterlimit:10;} .st235{fill:#D3502C;stroke:#D3502C;stroke-miterlimit:10;} .st236{fill:#030202;} .st237{fill:#F8EDE0;} .st238{fill:#3A3A3A;} .st239{fill:url(#SVGID_173_);} .st240{fill:url(#SVGID_174_);} .st241{fill:url(#SVGID_175_);} .st242{fill:url(#SVGID_176_);} .st243{fill:url(#SVGID_177_);} .st244{fill:#FAC854;} .st245{fill:#53B6B4;} .st246{fill:#DFE1E2;} .st247{fill:#EDF0F1;} .st248{fill:#F6B331;} .st249{fill:#F9D09A;} .st250{fill:#666666;} .st251{fill:#C8CBCC;} .st252{fill:url(#SVGID_178_);} .st253{fill:none;stroke:url(#SVGID_179_);stroke-miterlimit:10;} .st254{fill:url(#SVGID_180_);} .st255{fill:none;stroke:url(#SVGID_181_);stroke-miterlimit:10;} .st256{fill:none;stroke:url(#SVGID_182_);stroke-miterlimit:10;} .st257{fill:none;stroke:#D3502C;stroke-width:9;stroke-linecap:round;stroke-linejoin:round;stroke-miterlimit:10;} .st258{fill:none;stroke:#000000;stroke-width:4;stroke-linecap:round;stroke-linejoin:round;stroke-miterlimit:10;} .st259{fill:none;stroke:#000000;stroke-width:8;stroke-linecap:round;stroke-linejoin:round;stroke-miterlimit:10;} .st260{fill:#EE8B3E;stroke:#000000;stroke-width:4;stroke-linecap:round;stroke-linejoin:round;stroke-miterlimit:10;} .st261{fill:#EE8B3E;} .st262{fill:none;stroke:#EE8B3E;stroke-width:9;stroke-linecap:round;stroke-linejoin:round;stroke-miterlimit:10;} .st263{fill:#EE8B3E;stroke:#000000;stroke-width:8;stroke-linecap:round;stroke-linejoin:round;stroke-miterlimit:10;} </style> <path class="st106" d="M176.3,227.3c0,7.8,7,14.2,15.7,14.2s15.7-6.4,15.7-14.2c0-7.8-7-14.2-15.7-14.2S176.3,219.5,176.3,227.3z M191.9,220.4c4.6,0,8.4,3.1,8.4,6.9c0,3.8-3.8,6.9-8.4,6.9c-4.6,0-8.4-3.1-8.4-6.9C183.5,223.5,187.3,220.4,191.9,220.4z"></path> <path class="st261" d="M174.4,118.2c2,0,3.6-1.6,3.6-3.6v-4.5c0-2-1.6-3.6-3.6-3.6c-2,0-3.6,1.6-3.6,3.6v4.5 C170.8,116.6,172.4,118.2,174.4,118.2z"></path> <path class="st261" d="M205.9,118.2c2,0,3.6-1.6,3.6-3.6v-4.5c0-2-1.6-3.6-3.6-3.6c-2,0-3.6,1.6-3.6,3.6v4.5 C202.2,116.6,203.9,118.2,205.9,118.2z"></path> <path class="st261" d="M299.5,220.2C299.5,220.2,299.5,220.2,299.5,220.2c0-0.1,0-0.1-0.1-0.1l-15.8-30.1 c-9-17.2-16.9-29.4-37.7-30.5c-8.5-0.5-13.9-2-20-9.2c-0.6-0.8-1.7-1.9-2.8-3c7.8-7.6,13.8-17.1,16.4-26.5h4.5 c7.5,0,13.6-6.2,13.6-13.7v-6.7c0-4.2-1.9-8-4.9-10.5V76.7c0-17.5-6.8-32.2-19.6-42.5c-11.2-9.1-26.3-14.1-42.4-14.1 c-16.4,0-31.6,5.1-43,14.5c-13,10.6-19.9,25.8-19.9,43.9v11.4c-0.3,0.2-0.6,0.5-0.8,0.8c-2.6,2.6-4.1,6.1-4.1,9.8v6.7 c0,7.6,6.1,13.7,13.6,13.7h4.5c2.8,10.1,9.4,20.2,18.1,28.1c-0.5,0.5-0.9,1-1.2,1.4c-6.1,7.2-11.6,8.7-20,9.2 c-17.4,0.9-25.7,9.4-33.4,22.8L97.5,195l-13.1,25.1c0,0,0,0,0,0.1c0,0,0,0,0,0c-4.3,8.3-4.8,15.4-1.4,21 c5.2,8.7,19.2,12.9,42.8,12.9h0.9l0.3,3.5c0.5,5.3,4.5,9.1,9.4,9.1h111c4.9,0,8.9-3.8,9.4-9.1l0.3-3.5h1c23.5,0,37.5-4.2,42.8-12.9 C304.3,235.6,303.9,228.5,299.5,220.2z M233.8,86.7h-23.3c-17.4,0-24.3-4.2-30.4-8c-1.2-0.7-2.3-1.5-3.3-2.1c-3-2-5.7-3.8-8.8-3.8 c-0.3,0-0.7,0-1,0.1c-3.9,0.5-6.9,3.8-10.2,8.5c-3.1,4.6-4.9,5.3-7.6,5.3h-2.2v-7.3c0-25.6,23.1-39.5,44.9-39.6h0.1 c19.3,0,41.7,11.2,41.9,42.6V86.7z M247.3,94.9c1.8,1.1,3,3.2,3,5.5v6.7c0,3.6-2.8,6.5-6.3,6.5h-3.1c0.1-0.9,0.1-1.9,0.1-2.8V94l3,0 c1.1,0,2.1,0.3,3,0.8C247.2,94.8,247.3,94.9,247.3,94.9z M136.6,113.6L136.6,113.6c-3.5,0-6.3-2.9-6.3-6.5v-6.7 c0-1.7,0.7-3.4,1.9-4.6c1.2-1.2,2.7-1.8,4.4-1.8h0h3v16.7c0,0.9,0.1,1.9,0.1,2.8H136.6z M139.6,79.4v7.3h-3c0,0,0,0,0,0 c-0.5,0-0.9,0-1.4,0.1v-8.3c0-35.1,28.9-51.1,55.7-51.1c14.5,0,27.9,4.4,37.8,12.5c11,8.9,16.8,21.6,16.8,36.8v10.1 c-0.5-0.1-1-0.1-1.4-0.1l-3,0v-4.2c-0.2-34.5-24.8-49.8-49.2-49.8c-0.1,0-0.1,0-0.2,0c-13.1,0-26,4.5-35.5,12.1 C145.5,53.4,139.6,65.7,139.6,79.4z M147.5,116.6c0-0.1,0-0.2,0-0.2c-0.4-1.9-0.6-3.8-0.6-5.6V94h2.2c6.5,0,10.2-3.4,13.6-8.5 c3.2-4.7,4.6-5.4,5.1-5.4c0.8-0.1,2.9,1.3,4.8,2.6c1,0.7,2.2,1.5,3.6,2.3c6.6,4,14.8,9,34.2,9h23.3v16.7c0,1.8-0.2,3.7-0.6,5.6 c0,0.1,0,0.2-0.1,0.3c-3.1,14.8-16.9,31-32.3,36.8c-7.8,2.9-13.2,2.9-21,0C164.4,147.6,150.6,131.4,147.5,116.6z M163.4,155 c0.3-0.4,0.8-0.9,1.4-1.5c3.9,2.8,8.1,5.1,12.5,6.8c4.7,1.8,8.9,2.6,13,2.6c4.2,0,8.4-0.9,13.1-2.7c5-1.9,9.9-4.7,14.3-8.2 c1,1,2.2,2.2,2.7,2.9c3,3.5,5.9,5.9,8.9,7.6c-6.8,8-20.4,13.3-35.9,13.8c-17,0.5-31.6-4.7-39-13.7 C157.5,160.9,160.4,158.5,163.4,155z M125.7,246.8c-25.5,0-34-5.1-36.6-9.4c-1.9-3.1-1.5-7.5,1.2-13c8.2-4.3,18-4.7,33.3-1.2 l2.3,23.5H125.7z M183.6,188h-53.2c-2.7,0-5.3,1.2-7.1,3.2c-1.7,1.9-2.5,4.2-2.3,6.7l1.8,17.7c-11.3-2.4-20-2.7-27.5-0.9l8-15.3 l7.3-13.6c6.9-11.8,13.3-18.4,27.5-19.2c3.2-0.2,6.2-0.5,9.1-1.2c8,11.4,24.6,18.3,43.9,18.3c0.8,0,1.6,0,2.4,0 c19-0.6,35-7.5,42.8-18.2c2.9,0.7,5.9,1.1,9.2,1.3c16.4,0.9,22.5,9.2,31.6,26.6l11.2,21.4c-7.5-1.8-16.2-1.5-27.5,0.9l1.8-17.7 c0.2-2.4-0.6-4.8-2.3-6.7c-1.8-2-4.4-3.2-7.1-3.2H202L183.6,188z M202,195.3h51.4c0.6,0,1.3,0.3,1.8,0.8c0.3,0.3,0.4,0.7,0.4,1.1 l-5.3,52.9c0,0,0,0,0,0l-0.7,6.8c-0.1,1.2-0.9,2.6-2.2,2.6h-111c-1.3,0-2-1.3-2.2-2.6l-0.7-6.7c0,0,0,0,0,0l-3-29.9 c0-0.2,0-0.3,0-0.5l-2.2-22.5c0-0.4,0.1-0.7,0.4-1.1c0.4-0.5,1.1-0.8,1.8-0.8h53.2H202z M294.7,237.4c-2.6,4.3-11,9.4-36.6,9.4h-0.2 l2.4-23.5c15.2-3.5,25.1-3.1,33.3,1.2C296.2,229.9,296.6,234.3,294.7,237.4z"></path> </svg>