<svg xmlns="http://www.w3.org/2000/svg" xmlns:xlink="http://www.w3.org/1999/xlink" id="Capa_1" x="0px" y="0px" viewBox="0 0 409.8 286.8" style="enable-background:new 0 0 409.8 286.8;" xml:space="preserve"> <style type="text/css"> .st0{fill:#EE8F40;} .st1{fill:none;stroke:#010001;stroke-width:3;stroke-linecap:round;stroke-linejoin:round;stroke-miterlimit:10;} .st2{fill:#FDF0E9;} .st3{fill:url(#SVGID_1_);} .st4{fill:url(#SVGID_2_);} .st5{fill:url(#SVGID_3_);} .st6{fill:url(#SVGID_4_);} .st7{fill:none;stroke:url(#SVGID_5_);stroke-width:4;stroke-miterlimit:10;} .st8{fill:none;stroke:url(#SVGID_6_);stroke-width:4;stroke-miterlimit:10;} .st9{fill:none;stroke:url(#SVGID_7_);stroke-width:4;stroke-miterlimit:10;} .st10{opacity:0.5;fill:#58B5DB;} .st11{fill:url(#SVGID_8_);} .st12{fill:url(#SVGID_9_);} .st13{fill:url(#SVGID_10_);} .st14{fill:url(#SVGID_11_);} .st15{fill:url(#SVGID_12_);} .st16{fill:url(#SVGID_13_);} .st17{fill:url(#SVGID_14_);} .st18{fill:url(#SVGID_15_);} .st19{fill:url(#SVGID_16_);} .st20{fill:url(#SVGID_17_);} .st21{fill:url(#SVGID_18_);} .st22{fill:url(#SVGID_19_);} .st23{fill:url(#SVGID_20_);} .st24{fill:url(#SVGID_21_);} .st25{fill:url(#SVGID_22_);} .st26{fill:url(#SVGID_23_);} .st27{fill:url(#SVGID_24_);} .st28{fill:url(#SVGID_25_);} .st29{fill:url(#SVGID_26_);} .st30{fill:url(#SVGID_27_);} .st31{fill:url(#SVGID_28_);} .st32{fill:url(#SVGID_29_);} .st33{fill:url(#SVGID_30_);} .st34{fill:url(#SVGID_31_);} .st35{fill:url(#SVGID_32_);} .st36{fill:url(#SVGID_33_);} .st37{fill:url(#SVGID_34_);} .st38{fill:url(#SVGID_35_);} .st39{fill:url(#SVGID_36_);} .st40{fill:url(#SVGID_37_);} .st41{fill:url(#SVGID_38_);} .st42{fill:url(#SVGID_39_);} .st43{fill:url(#SVGID_40_);} .st44{fill:url(#SVGID_41_);} .st45{fill:url(#SVGID_42_);} .st46{fill:url(#SVGID_43_);} .st47{fill:url(#SVGID_44_);} .st48{opacity:0.35;fill:#616060;} .st49{fill:#FFFFFF;} .st50{fill:#B0B6BC;} .st51{fill:#5D4293;} .st52{fill:#126070;} .st53{fill:#E34339;} .st54{opacity:0.1;fill:#616060;} .st55{fill:#E2E5E6;} .st56{fill:#DA6C31;} .st57{fill:url(#price-tag_1_);} .st58{fill:url(#SVGID_45_);} .st59{fill:url(#Shape_51_1_);} .st60{fill:url(#Shape_52_1_);} .st61{fill:url(#SVGID_46_);} .st62{fill:url(#Shape_51_4_);} .st63{fill:url(#Shape_51_5_);} .st64{fill:url(#SVGID_47_);} .st65{fill:url(#Shape_51_6_);} .st66{fill:url(#Shape_52_4_);} .st67{fill:url(#SVGID_48_);} .st68{fill:url(#Shape_51_7_);} .st69{fill:url(#Shape_51_8_);} .st70{fill:url(#SVGID_49_);} .st71{fill:url(#SVGID_50_);} .st72{fill:none;} .st73{fill:url(#SVGID_51_);} .st74{fill:url(#SVGID_52_);} .st75{fill:url(#SVGID_53_);} .st76{fill:url(#SVGID_54_);} .st77{fill:url(#SVGID_55_);} .st78{fill:#EE8A3C;} .st79{fill:url(#SVGID_56_);} .st80{fill:url(#SVGID_57_);} .st81{fill:url(#SVGID_58_);} .st82{fill:url(#SVGID_59_);} .st83{fill:url(#SVGID_60_);} .st84{fill:url(#SVGID_61_);} .st85{fill:url(#SVGID_62_);} .st86{opacity:0.25;fill:#616060;} .st87{fill:#405869;} .st88{fill:#8CCCE6;} .st89{fill:#58B5DB;} .st90{fill:url(#SVGID_63_);} .st91{fill:url(#SVGID_64_);} .st92{fill:url(#SVGID_65_);} .st93{fill:url(#SVGID_66_);} .st94{fill:url(#SVGID_67_);} .st95{fill:url(#SVGID_68_);} .st96{fill:url(#SVGID_69_);} .st97{fill:url(#SVGID_70_);} .st98{fill:url(#SVGID_71_);} .st99{fill:url(#SVGID_72_);} .st100{fill:url(#SVGID_73_);} .st101{fill:url(#SVGID_74_);} .st102{fill:url(#SVGID_75_);} .st103{fill:#F4B380;} .st104{fill:#79C3C5;} .st105{fill:#E9C9E0;} .st106{fill:#1DAFB4;} .st107{fill:none;stroke:url(#SVGID_76_);stroke-width:8;stroke-linecap:round;stroke-linejoin:round;stroke-miterlimit:10;} .st108{fill:#DE5029;} .st109{fill:url(#SVGID_77_);} .st110{fill:url(#SVGID_78_);} .st111{fill:url(#SVGID_79_);} .st112{fill:url(#SVGID_80_);} .st113{fill:url(#SVGID_81_);} .st114{fill:url(#SVGID_82_);} .st115{fill:url(#SVGID_83_);} .st116{fill:url(#SVGID_84_);} .st117{fill:url(#SVGID_85_);} .st118{fill:url(#SVGID_86_);} .st119{fill:url(#SVGID_87_);} .st120{fill:url(#SVGID_88_);} .st121{fill:url(#SVGID_89_);} .st122{fill:url(#SVGID_90_);} .st123{fill:url(#SVGID_91_);} .st124{fill:url(#SVGID_92_);} .st125{fill:url(#SVGID_93_);} .st126{fill:url(#SVGID_94_);} .st127{fill:url(#SVGID_95_);} .st128{fill:url(#SVGID_96_);} .st129{fill:none;stroke:#EE8A3C;stroke-width:6;stroke-miterlimit:10;} .st130{fill:#BD65A3;} .st131{fill:url(#SVGID_97_);} .st132{fill:url(#SVGID_98_);} .st133{fill:url(#SVGID_99_);} .st134{fill:url(#SVGID_100_);} .st135{fill:url(#SVGID_101_);} .st136{fill:url(#SVGID_102_);} .st137{fill:url(#SVGID_103_);} .st138{fill:url(#SVGID_104_);} .st139{fill:url(#SVGID_105_);} .st140{fill:url(#SVGID_106_);} .st141{fill:none;stroke:url(#SVGID_107_);stroke-width:6;stroke-miterlimit:10;} .st142{fill:none;stroke:url(#SVGID_108_);stroke-width:6;stroke-miterlimit:10;} .st143{fill:none;stroke:url(#SVGID_109_);stroke-width:6;stroke-miterlimit:10;} .st144{fill:none;stroke:url(#SVGID_110_);stroke-width:6;stroke-miterlimit:10;} .st145{fill:none;stroke:url(#SVGID_111_);stroke-width:6;stroke-miterlimit:10;} .st146{fill:url(#SVGID_112_);} .st147{fill:url(#SVGID_113_);} .st148{fill:url(#SVGID_114_);} .st149{fill:url(#SVGID_115_);} .st150{fill:url(#SVGID_116_);} .st151{fill:none;stroke:url(#SVGID_117_);stroke-width:4;stroke-miterlimit:10;} .st152{fill:#0088BD;} .st153{fill:#3A8BC7;} .st154{fill:#EFEFEF;} .st155{fill:#008255;} .st156{fill:#0069AC;} .st157{fill:url(#SVGID_118_);} .st158{fill:url(#SVGID_119_);} .st159{fill:url(#SVGID_120_);} .st160{fill:url(#SVGID_121_);} .st161{fill:url(#SVGID_122_);} .st162{fill:url(#SVGID_123_);} .st163{fill:url(#SVGID_124_);} .st164{fill:url(#SVGID_125_);} .st165{fill:url(#SVGID_126_);} .st166{fill:url(#SVGID_127_);} .st167{fill:url(#SVGID_128_);} .st168{fill:url(#SVGID_129_);} .st169{fill:url(#SVGID_130_);} .st170{fill:url(#SVGID_131_);} .st171{fill:url(#SVGID_132_);} .st172{fill:url(#SVGID_133_);} .st173{fill:url(#SVGID_134_);} .st174{fill:url(#SVGID_135_);} .st175{fill:url(#SVGID_136_);} .st176{fill:url(#SVGID_137_);} .st177{fill:url(#SVGID_138_);} .st178{fill:url(#SVGID_139_);} .st179{fill:url(#SVGID_140_);} .st180{fill:url(#SVGID_141_);} .st181{fill:url(#SVGID_142_);} .st182{fill:url(#SVGID_143_);} .st183{fill:url(#SVGID_144_);} .st184{fill:url(#SVGID_145_);} .st185{fill:url(#SVGID_146_);} .st186{fill:url(#SVGID_147_);} .st187{fill:url(#SVGID_148_);} .st188{fill:url(#SVGID_149_);} .st189{fill:url(#SVGID_150_);} .st190{fill:url(#SVGID_151_);} .st191{fill:url(#SVGID_152_);} .st192{fill:#F19C42;} .st193{fill:#D3502C;} .st194{stroke:#000000;stroke-miterlimit:10;} .st195{stroke:#000000;stroke-width:1.4766;stroke-miterlimit:10;} .st196{fill:url(#SVGID_153_);} .st197{fill-rule:evenodd;clip-rule:evenodd;fill:#EE8F42;} .st198{fill-rule:evenodd;clip-rule:evenodd;fill:#FFFFFF;} .st199{fill-rule:evenodd;clip-rule:evenodd;fill:none;} .st200{fill:#EE8F42;} .st201{fill:none;stroke:#FFFFFF;stroke-width:0.216;stroke-miterlimit:2.6131;} .st202{fill-rule:evenodd;clip-rule:evenodd;fill:#EF9228;} .st203{fill:#EF9228;} .st204{fill:#5A8EC7;} .st205{fill-rule:evenodd;clip-rule:evenodd;} .st206{clip-path:url(#SVGID_155_);fill:url(#SVGID_156_);} .st207{fill:#00366F;} .st208{fill:#F6F5F1;} .st209{fill:#E33C10;} .st210{fill:#223D65;} .st211{fill:#FED800;} .st212{fill:#006BB4;} .st213{fill:#1A1600;} .st214{fill:#E44E33;} .st215{fill:#F7F8F8;} .st216{fill:#0F4C98;} .st217{fill:#E34333;} .st218{clip-path:url(#SVGID_158_);} .st219{clip-path:url(#SVGID_160_);fill:none;} .st220{fill-rule:evenodd;clip-rule:evenodd;fill:#EE8F40;} .st221{clip-path:url(#SVGID_162_);fill:url(#SVGID_163_);} .st222{clip-path:url(#SVGID_165_);} .st223{clip-path:url(#SVGID_167_);fill:none;} .st224{fill:#EE915D;} .st225{fill:#EF922A;} .st226{fill:#1E1E1C;} .st227{clip-path:url(#SVGID_169_);fill:url(#SVGID_170_);} .st228{fill:#010001;} .st229{fill:url(#SVGID_171_);} .st230{fill:#31323D;} .st231{fill:none;stroke:#31323D;stroke-width:4;stroke-miterlimit:10;} .st232{fill:none;stroke:#31323D;stroke-width:9;stroke-linecap:round;stroke-linejoin:round;stroke-miterlimit:10;} .st233{fill:url(#SVGID_172_);} .st234{fill:#EE8F40;stroke:#EE8F42;stroke-width:4;stroke-linecap:round;stroke-linejoin:round;stroke-miterlimit:10;} .st235{fill:#D3502C;stroke:#D3502C;stroke-miterlimit:10;} .st236{fill:#030202;} .st237{fill:#F8EDE0;} .st238{fill:#3A3A3A;} .st239{fill:url(#SVGID_173_);} .st240{fill:url(#SVGID_174_);} .st241{fill:url(#SVGID_175_);} .st242{fill:url(#SVGID_176_);} .st243{fill:url(#SVGID_177_);} .st244{fill:#FAC854;} .st245{fill:#53B6B4;} .st246{fill:#DFE1E2;} .st247{fill:#EDF0F1;} .st248{fill:#F6B331;} .st249{fill:#F9D09A;} .st250{fill:#666666;} .st251{fill:#C8CBCC;} .st252{fill:url(#SVGID_178_);} .st253{fill:none;stroke:url(#SVGID_179_);stroke-miterlimit:10;} .st254{fill:url(#SVGID_180_);} .st255{fill:none;stroke:url(#SVGID_181_);stroke-miterlimit:10;} .st256{fill:none;stroke:url(#SVGID_182_);stroke-miterlimit:10;} .st257{fill:none;stroke:#D3502C;stroke-width:9;stroke-linecap:round;stroke-linejoin:round;stroke-miterlimit:10;} .st258{fill:none;stroke:#000000;stroke-width:4;stroke-linecap:round;stroke-linejoin:round;stroke-miterlimit:10;} .st259{fill:none;stroke:#000000;stroke-width:8;stroke-linecap:round;stroke-linejoin:round;stroke-miterlimit:10;} .st260{fill:#EE8B3E;stroke:#000000;stroke-width:4;stroke-linecap:round;stroke-linejoin:round;stroke-miterlimit:10;} .st261{fill:#EE8B3E;} .st262{fill:none;stroke:#EE8B3E;stroke-width:9;stroke-linecap:round;stroke-linejoin:round;stroke-miterlimit:10;} .st263{fill:#EE8B3E;stroke:#000000;stroke-width:8;stroke-linecap:round;stroke-linejoin:round;stroke-miterlimit:10;} </style> <g> <g> <path class="st261" d="M261.6,259.4H111.2c-17.2,0-31.2-14-31.2-31.2c0-1.1,0.9-2,2-2l16.7,0l133.6,0c1.1,0,2,0.9,2,2 c0,15,12.2,27.2,27.2,27.2c1.1,0,2,0.9,2,2S262.7,259.4,261.6,259.4z M84.1,230.2c1,14.1,12.8,25.2,27.2,25.2h135.1 c-9-5.1-15.2-14.4-15.9-25.2l-131.7,0L84.1,230.2z"></path> </g> </g> <path class="st261" d="M150.4,160.1c1,0,1.8-0.8,1.9-1.8c2.7-34.4-8-61-31.6-79.2c-0.4-0.3-0.9-0.5-1.5-0.4c-0.5,0.1-1,0.4-1.3,0.8 l-3.9,6l-5.7-14c-0.2-0.4-0.5-0.7-0.9-1c-15.8-8.3-33.2-13.3-51-14.6c-0.9,0-1.8,0.7-2,1.6c-3.2,24.9,3.3,50,18.1,70.2 c2.5,3.2,5.3,6.2,8.4,8.9c0.3,0.3,0.8,0.5,1.3,0.5h17.1l-5.2,6.5c-0.7,0.8-0.5,2,0.3,2.7c0.1,0,0.1,0.1,0.2,0.1 C109.2,155.4,125.3,159.4,150.4,160.1L150.4,160.1z M119.9,83.3c21,17,30.7,41.5,28.7,72.9c-22.2-0.8-37.1-4.3-50.2-12l6.3-7.9 c0.7-0.8,0.5-2-0.3-2.7c-0.3-0.3-0.8-0.4-1.2-0.4H83c-2.7-2.4-5.2-5-7.4-7.9C55.3,98.7,57.2,67.4,58,59.8c16.4,1.6,32.3,6.2,47,13.7 l6.8,16.7c0.4,1,1.5,1.4,2.5,1c0.4-0.1,0.7-0.4,0.9-0.7L119.9,83.3z"></path> <path class="st261" d="M158.8,179.6c0.2,0,0.3,0,0.5-0.1c1-0.3,1.6-1.3,1.3-2.3c-11-40.7-66.7-82.2-69-83.9 c-0.9-0.6-2.1-0.3-2.6,0.6c-0.5,0.8-0.3,1.8,0.4,2.4c0.6,0.4,56.9,42.4,67.6,81.9C157.2,179,158,179.6,158.8,179.6L158.8,179.6z"></path> <path class="st106" d="M208.7,77.6c-3.1-3.6-7.2-10.7-10-15c-2.8-4.3-1.9-6.1-5.9-6.1c-3.9,0-4,2.9-4,2.9v5c0,0-0.8,78.2-0.8,88.3 c0,3.8-0.4,6.9-0.4,6.9l0,0c-7.4-2.6-17.4,0.3-24.9,7.9c-9.6,9.7-11.6,23.4-4.5,30.6c7.1,7.2,20.7,5.1,30.3-4.6 c6.7-6.8,9.7-15.4,8.5-22.5V96.2c0,0-0.9-5.4,4.4-5.6c18.9,1,23.4,37,23.4,42.4c0,5.4,3.1,4.7,3.1,4.7s4.8-0.4,4.8-16.6 C232.9,104.8,212,81.4,208.7,77.6z"></path> <g> <g> <path class="st261" d="M96.7,232.2c-2.2,0-4-1.8-4-4v-81.4c0-2.2,1.8-4,4-4s4,1.8,4,4v81.4C100.7,230.4,98.9,232.2,96.7,232.2z"></path> </g> <g> <path class="st261" d="M96.7,68.8c-2.2,0-4-1.8-4-4v-9.9c0-18.3,14.9-33.2,33.2-33.2h1.4c2.2,0,4,1.8,4,4s-1.8,4-4,4h-1.4 c-13.9,0-25.2,11.3-25.2,25.2v9.9C100.7,67,98.9,68.8,96.7,68.8z"></path> </g> <g> <path class="st261" d="M259.6,261.4H109.2c-18.3,0-33.2-14.9-33.2-33.2c0-2.2,1.8-4,4-4l16.7,0l133.6,0c2.2,0,4,1.8,4,4 c0,13.9,11.3,25.2,25.2,25.2c2.2,0,4,1.8,4,4C263.6,259.6,261.8,261.4,259.6,261.4z M84.3,232.2c1.9,12,12.4,21.2,24.9,21.2H238 c-6.2-5.3-10.4-12.8-11.4-21.2l-129.9,0L84.3,232.2z"></path> </g> <g> <path class="st261" d="M287.8,58.9c-2.2,0-4-1.8-4-4c0-2.2,1.8-4,4-4l53.1,0c-1.9-12-12.4-21.2-24.9-21.2c-2.2,0-4-1.8-4-4 s1.8-4,4-4c18.3,0,33.2,14.9,33.2,33.2c0,2.2-1.8,4-4,4L287.8,58.9C287.8,58.9,287.8,58.9,287.8,58.9z"></path> </g> <g> <path class="st261" d="M258.5,261.4c-2.2,0-4-1.8-4-4c0-2.2,1.8-4,4-4c13.9,0,25.2-11.3,25.2-25.2V54.9c0-10.1,4.5-19.2,11.6-25.3 H127.3c-2.2,0-4-1.8-4-4s1.8-4,4-4H317c2.2,0,4,1.8,4,4s-1.8,4-4,4c-13.9,0-25.2,11.3-25.2,25.2v173.3 C291.8,246.5,276.9,261.4,258.5,261.4z"></path> </g> </g> </svg>