<svg xmlns="http://www.w3.org/2000/svg" xmlns:xlink="http://www.w3.org/1999/xlink" id="Capa_1" x="0px" y="0px" viewBox="0 0 409.8 286.8" style="enable-background:new 0 0 409.8 286.8;" xml:space="preserve"> <style type="text/css"> .st0{fill:#EE8F40;} .st1{fill:none;stroke:#010001;stroke-width:3;stroke-linecap:round;stroke-linejoin:round;stroke-miterlimit:10;} .st2{fill:#FDF0E9;} .st3{fill:url(#SVGID_1_);} .st4{fill:url(#SVGID_2_);} .st5{fill:url(#SVGID_3_);} .st6{fill:url(#SVGID_4_);} .st7{fill:none;stroke:url(#SVGID_5_);stroke-width:4;stroke-miterlimit:10;} .st8{fill:none;stroke:url(#SVGID_6_);stroke-width:4;stroke-miterlimit:10;} .st9{fill:none;stroke:url(#SVGID_7_);stroke-width:4;stroke-miterlimit:10;} .st10{opacity:0.5;fill:#58B5DB;} .st11{fill:url(#SVGID_8_);} .st12{fill:url(#SVGID_9_);} .st13{fill:url(#SVGID_10_);} .st14{fill:url(#SVGID_11_);} .st15{fill:url(#SVGID_12_);} .st16{fill:url(#SVGID_13_);} .st17{fill:url(#SVGID_14_);} .st18{fill:url(#SVGID_15_);} .st19{fill:url(#SVGID_16_);} .st20{fill:url(#SVGID_17_);} .st21{fill:url(#SVGID_18_);} .st22{fill:url(#SVGID_19_);} .st23{fill:url(#SVGID_20_);} .st24{fill:url(#SVGID_21_);} .st25{fill:url(#SVGID_22_);} .st26{fill:url(#SVGID_23_);} .st27{fill:url(#SVGID_24_);} .st28{fill:url(#SVGID_25_);} .st29{fill:url(#SVGID_26_);} .st30{fill:url(#SVGID_27_);} .st31{fill:url(#SVGID_28_);} .st32{fill:url(#SVGID_29_);} .st33{fill:url(#SVGID_30_);} .st34{fill:url(#SVGID_31_);} .st35{fill:url(#SVGID_32_);} .st36{fill:url(#SVGID_33_);} .st37{fill:url(#SVGID_34_);} .st38{fill:url(#SVGID_35_);} .st39{fill:url(#SVGID_36_);} .st40{fill:url(#SVGID_37_);} .st41{fill:url(#SVGID_38_);} .st42{fill:url(#SVGID_39_);} .st43{fill:url(#SVGID_40_);} .st44{fill:url(#SVGID_41_);} .st45{fill:url(#SVGID_42_);} .st46{fill:url(#SVGID_43_);} .st47{fill:url(#SVGID_44_);} .st48{opacity:0.35;fill:#616060;} .st49{fill:#FFFFFF;} .st50{fill:#B0B6BC;} .st51{fill:#5D4293;} .st52{fill:#126070;} .st53{fill:#E34339;} .st54{opacity:0.1;fill:#616060;} .st55{fill:#E2E5E6;} .st56{fill:#DA6C31;} .st57{fill:url(#price-tag_1_);} .st58{fill:url(#SVGID_45_);} .st59{fill:url(#Shape_51_1_);} .st60{fill:url(#Shape_52_1_);} .st61{fill:url(#SVGID_46_);} .st62{fill:url(#Shape_51_4_);} .st63{fill:url(#Shape_51_5_);} .st64{fill:url(#SVGID_47_);} .st65{fill:url(#Shape_51_6_);} .st66{fill:url(#Shape_52_4_);} .st67{fill:url(#SVGID_48_);} .st68{fill:url(#Shape_51_7_);} .st69{fill:url(#Shape_51_8_);} .st70{fill:url(#SVGID_49_);} .st71{fill:url(#SVGID_50_);} .st72{fill:none;} .st73{fill:url(#SVGID_51_);} .st74{fill:url(#SVGID_52_);} .st75{fill:url(#SVGID_53_);} .st76{fill:url(#SVGID_54_);} .st77{fill:url(#SVGID_55_);} .st78{fill:#EE8A3C;} .st79{fill:url(#SVGID_56_);} .st80{fill:url(#SVGID_57_);} .st81{fill:url(#SVGID_58_);} .st82{fill:url(#SVGID_59_);} .st83{fill:url(#SVGID_60_);} .st84{fill:url(#SVGID_61_);} .st85{fill:url(#SVGID_62_);} .st86{opacity:0.25;fill:#616060;} .st87{fill:#405869;} .st88{fill:#8CCCE6;} .st89{fill:#58B5DB;} .st90{fill:url(#SVGID_63_);} .st91{fill:url(#SVGID_64_);} .st92{fill:url(#SVGID_65_);} .st93{fill:url(#SVGID_66_);} .st94{fill:url(#SVGID_67_);} .st95{fill:url(#SVGID_68_);} .st96{fill:url(#SVGID_69_);} .st97{fill:url(#SVGID_70_);} .st98{fill:url(#SVGID_71_);} .st99{fill:url(#SVGID_72_);} .st100{fill:url(#SVGID_73_);} .st101{fill:url(#SVGID_74_);} .st102{fill:url(#SVGID_75_);} .st103{fill:#F4B380;} .st104{fill:#79C3C5;} .st105{fill:#E9C9E0;} .st106{fill:#1DAFB4;} .st107{fill:none;stroke:url(#SVGID_76_);stroke-width:8;stroke-linecap:round;stroke-linejoin:round;stroke-miterlimit:10;} .st108{fill:#DE5029;} .st109{fill:url(#SVGID_77_);} .st110{fill:url(#SVGID_78_);} .st111{fill:url(#SVGID_79_);} .st112{fill:url(#SVGID_80_);} .st113{fill:url(#SVGID_81_);} .st114{fill:url(#SVGID_82_);} .st115{fill:url(#SVGID_83_);} .st116{fill:url(#SVGID_84_);} .st117{fill:url(#SVGID_85_);} .st118{fill:url(#SVGID_86_);} .st119{fill:url(#SVGID_87_);} .st120{fill:url(#SVGID_88_);} .st121{fill:url(#SVGID_89_);} .st122{fill:url(#SVGID_90_);} .st123{fill:url(#SVGID_91_);} .st124{fill:url(#SVGID_92_);} .st125{fill:url(#SVGID_93_);} .st126{fill:url(#SVGID_94_);} .st127{fill:url(#SVGID_95_);} .st128{fill:url(#SVGID_96_);} .st129{fill:none;stroke:#EE8A3C;stroke-width:6;stroke-miterlimit:10;} .st130{fill:#BD65A3;} .st131{fill:url(#SVGID_97_);} .st132{fill:url(#SVGID_98_);} .st133{fill:url(#SVGID_99_);} .st134{fill:url(#SVGID_100_);} .st135{fill:url(#SVGID_101_);} .st136{fill:url(#SVGID_102_);} .st137{fill:url(#SVGID_103_);} .st138{fill:url(#SVGID_104_);} .st139{fill:url(#SVGID_105_);} .st140{fill:url(#SVGID_106_);} .st141{fill:none;stroke:url(#SVGID_107_);stroke-width:6;stroke-miterlimit:10;} .st142{fill:none;stroke:url(#SVGID_108_);stroke-width:6;stroke-miterlimit:10;} .st143{fill:none;stroke:url(#SVGID_109_);stroke-width:6;stroke-miterlimit:10;} .st144{fill:none;stroke:url(#SVGID_110_);stroke-width:6;stroke-miterlimit:10;} .st145{fill:none;stroke:url(#SVGID_111_);stroke-width:6;stroke-miterlimit:10;} .st146{fill:url(#SVGID_112_);} .st147{fill:url(#SVGID_113_);} .st148{fill:url(#SVGID_114_);} .st149{fill:url(#SVGID_115_);} .st150{fill:url(#SVGID_116_);} .st151{fill:none;stroke:url(#SVGID_117_);stroke-width:4;stroke-miterlimit:10;} .st152{fill:#0088BD;} .st153{fill:#3A8BC7;} .st154{fill:#EFEFEF;} .st155{fill:#008255;} .st156{fill:#0069AC;} .st157{fill:url(#SVGID_118_);} .st158{fill:url(#SVGID_119_);} .st159{fill:url(#SVGID_120_);} .st160{fill:url(#SVGID_121_);} .st161{fill:url(#SVGID_122_);} .st162{fill:url(#SVGID_123_);} .st163{fill:url(#SVGID_124_);} .st164{fill:url(#SVGID_125_);} .st165{fill:url(#SVGID_126_);} .st166{fill:url(#SVGID_127_);} .st167{fill:url(#SVGID_128_);} .st168{fill:url(#SVGID_129_);} .st169{fill:url(#SVGID_130_);} .st170{fill:url(#SVGID_131_);} .st171{fill:url(#SVGID_132_);} .st172{fill:url(#SVGID_133_);} .st173{fill:url(#SVGID_134_);} .st174{fill:url(#SVGID_135_);} .st175{fill:url(#SVGID_136_);} .st176{fill:url(#SVGID_137_);} .st177{fill:url(#SVGID_138_);} .st178{fill:url(#SVGID_139_);} .st179{fill:url(#SVGID_140_);} .st180{fill:url(#SVGID_141_);} .st181{fill:url(#SVGID_142_);} .st182{fill:url(#SVGID_143_);} .st183{fill:url(#SVGID_144_);} .st184{fill:url(#SVGID_145_);} .st185{fill:url(#SVGID_146_);} .st186{fill:url(#SVGID_147_);} .st187{fill:url(#SVGID_148_);} .st188{fill:url(#SVGID_149_);} .st189{fill:url(#SVGID_150_);} .st190{fill:url(#SVGID_151_);} .st191{fill:url(#SVGID_152_);} .st192{fill:#F19C42;} .st193{fill:#D3502C;} .st194{stroke:#000000;stroke-miterlimit:10;} .st195{stroke:#000000;stroke-width:1.4766;stroke-miterlimit:10;} .st196{fill:url(#SVGID_153_);} .st197{fill-rule:evenodd;clip-rule:evenodd;fill:#EE8F42;} .st198{fill-rule:evenodd;clip-rule:evenodd;fill:#FFFFFF;} .st199{fill-rule:evenodd;clip-rule:evenodd;fill:none;} .st200{fill:#EE8F42;} .st201{fill:none;stroke:#FFFFFF;stroke-width:0.216;stroke-miterlimit:2.6131;} .st202{fill-rule:evenodd;clip-rule:evenodd;fill:#EF9228;} .st203{fill:#EF9228;} .st204{fill:#5A8EC7;} .st205{fill-rule:evenodd;clip-rule:evenodd;} .st206{clip-path:url(#SVGID_155_);fill:url(#SVGID_156_);} .st207{fill:#00366F;} .st208{fill:#F6F5F1;} .st209{fill:#E33C10;} .st210{fill:#223D65;} .st211{fill:#FED800;} .st212{fill:#006BB4;} .st213{fill:#1A1600;} .st214{fill:#E44E33;} .st215{fill:#F7F8F8;} .st216{fill:#0F4C98;} .st217{fill:#E34333;} .st218{clip-path:url(#SVGID_158_);} .st219{clip-path:url(#SVGID_160_);fill:none;} .st220{fill-rule:evenodd;clip-rule:evenodd;fill:#EE8F40;} .st221{clip-path:url(#SVGID_162_);fill:url(#SVGID_163_);} .st222{clip-path:url(#SVGID_165_);} .st223{clip-path:url(#SVGID_167_);fill:none;} .st224{fill:#EE915D;} .st225{fill:#EF922A;} .st226{fill:#1E1E1C;} .st227{clip-path:url(#SVGID_169_);fill:url(#SVGID_170_);} .st228{fill:#010001;} .st229{fill:url(#SVGID_171_);} .st230{fill:#31323D;} .st231{fill:none;stroke:#31323D;stroke-width:4;stroke-miterlimit:10;} .st232{fill:none;stroke:#31323D;stroke-width:9;stroke-linecap:round;stroke-linejoin:round;stroke-miterlimit:10;} .st233{fill:url(#SVGID_172_);} .st234{fill:#EE8F40;stroke:#EE8F42;stroke-width:4;stroke-linecap:round;stroke-linejoin:round;stroke-miterlimit:10;} .st235{fill:#D3502C;stroke:#D3502C;stroke-miterlimit:10;} .st236{fill:#030202;} .st237{fill:#F8EDE0;} .st238{fill:#3A3A3A;} .st239{fill:url(#SVGID_173_);} .st240{fill:url(#SVGID_174_);} .st241{fill:url(#SVGID_175_);} .st242{fill:url(#SVGID_176_);} .st243{fill:url(#SVGID_177_);} .st244{fill:#FAC854;} .st245{fill:#53B6B4;} .st246{fill:#DFE1E2;} .st247{fill:#EDF0F1;} .st248{fill:#F6B331;} .st249{fill:#F9D09A;} .st250{fill:#666666;} .st251{fill:#C8CBCC;} .st252{fill:url(#SVGID_178_);} .st253{fill:none;stroke:url(#SVGID_179_);stroke-miterlimit:10;} .st254{fill:url(#SVGID_180_);} .st255{fill:none;stroke:url(#SVGID_181_);stroke-miterlimit:10;} .st256{fill:none;stroke:url(#SVGID_182_);stroke-miterlimit:10;} .st257{fill:none;stroke:#D3502C;stroke-width:9;stroke-linecap:round;stroke-linejoin:round;stroke-miterlimit:10;} .st258{fill:none;stroke:#000000;stroke-width:4;stroke-linecap:round;stroke-linejoin:round;stroke-miterlimit:10;} .st259{fill:none;stroke:#000000;stroke-width:8;stroke-linecap:round;stroke-linejoin:round;stroke-miterlimit:10;} .st260{fill:#EE8B3E;stroke:#000000;stroke-width:4;stroke-linecap:round;stroke-linejoin:round;stroke-miterlimit:10;} .st261{fill:#EE8B3E;} .st262{fill:none;stroke:#EE8B3E;stroke-width:9;stroke-linecap:round;stroke-linejoin:round;stroke-miterlimit:10;} .st263{fill:#EE8B3E;stroke:#000000;stroke-width:8;stroke-linecap:round;stroke-linejoin:round;stroke-miterlimit:10;} </style> <g> <path class="st193" d="M233.6,176.8h-66.1c-2.3,0-4.1,1.9-4.1,4.1v8.3c0,20.5,16.7,37.2,37.2,37.2s37.2-16.7,37.2-37.2v-8.3 C237.7,178.7,235.8,176.8,233.6,176.8z M229.4,185.1v4.1h-57.9v-4.1H229.4z M200.5,218.1c-12.8,0-24-8.4-27.7-20.7h55.4 C224.6,209.7,213.3,218.1,200.5,218.1z"></path> <path class="st193" d="M171.9,129.3c8.4,1.8,12.3,11.6,12.3,11.7l7.7-2.9c-0.2-0.6-5.4-14.1-18.3-16.9c-10.2-2.2-21.6,3-34,15.4 l5.8,5.8C155.7,132.4,164.8,127.8,171.9,129.3z"></path> <path class="st193" d="M227.3,121.3c-12.8,2.8-18,16.3-18.3,16.9l7.7,2.9c0-0.1,3.9-10,12.3-11.7c7.1-1.5,16.2,3.1,26.4,13.2 l5.8-5.8C248.9,124.3,237.4,119.1,227.3,121.3L227.3,121.3z"></path> </g> <g> <path class="st106" d="M94.3,161.6c-7.9,0-14.4-7.8-14.4-17.3v-4.7c0-9.6,6.5-17.3,14.4-17.3c4.2,0,7.6,4.1,7.6,9.1v21.2 C101.9,157.5,98.5,161.6,94.3,161.6z M94.3,131.3c-3.8,0-6.9,3.7-6.9,8.3v4.7c0,4.6,3.1,8.3,6.9,8.3c0,0,0.1-0.1,0.1-0.1v-21.2 C94.4,131.3,94.4,131.3,94.3,131.3z"></path> </g> <g> <path class="st106" d="M307.2,161.6c7.9,0,14.4-7.8,14.4-17.3v-4.7c0-9.6-6.5-17.3-14.4-17.3c-4.2,0-7.6,4.1-7.6,9.1v21.2 C299.7,157.5,303.1,161.6,307.2,161.6z M307.2,131.3c3.8,0,6.9,3.7,6.9,8.3v4.7c0,4.6-3.1,8.3-6.9,8.3c0,0-0.1-0.1-0.1-0.1v-21.2 C307.1,131.3,307.2,131.3,307.2,131.3z"></path> </g> <g> <path class="st261" d="M302.6,170.8c0-0.6-0.9-53.8-0.9-53.8l-4.8-6.9c0,0-0.7-0.1,7.2,0.7l-3.6,67.8 C293,177.3,302.6,171.4,302.6,170.8z"></path> <path class="st261" d="M233.6,176.8h-66.1c-2.3,0-4.1,1.9-4.1,4.1v8.3c0,20.5,16.7,37.2,37.2,37.2s37.2-16.7,37.2-37.2v-8.3 C237.7,178.7,235.8,176.8,233.6,176.8z M200.5,218.1c-12.8,0-24-8.4-27.7-20.7h55.4C224.6,209.7,213.3,218.1,200.5,218.1z M229.4,189.2h-57.9v-4.1h57.9V189.2z"></path> <path class="st261" d="M283.1,173.1c-1.1-1.4-3.7-42.5-3.7-42.5s2-19.1,2.3-20.6c0.2-1.2,9.6-0.5,13.5-0.2l0.4-6.9V77.6 c0-13.7-7.5-26.2-19.6-32.7c-8.3-13.1-22.8-21.1-38.3-21.1H101.3c-2.3,0-4.1,1.9-4.1,4.1v24.8c0,8.5,2.9,16.8,8.3,23.4 c0,0.5,0,1,0,1.4V103l5.7,4.1l11.9,4.5c0,0,1.8,38.3,0.6,53s-12.5,13.9-12.5,13.9l-1.5,2.4c3,0,6-0.9,8.6-2.4 c1.8,27.4,17.2,52,41.1,65.7v27.7h8.3v-23.4c21.1,9.2,45.1,9.2,66.1,0v23.5h8.3v-27.7c23.7-13.7,39.1-38.3,41.1-65.6 c2.6,1.6,5.5,2.4,8.6,2.4l0.2-3.3c-0.1,0-0.1,0-0.1,0C290.6,177.7,284.2,174.5,283.1,173.1z M287.3,77.6V103 c-1.5,0.4-2.8,1-4.1,1.7V69.3c0-2.6-0.3-5.2-0.7-7.7C285.6,66.3,287.3,71.9,287.3,77.6z M117.8,104.7c-1.3-0.8-2.7-1.4-4.1-1.7 V83.7c1.3,0.9,2.7,1.7,4.1,2.4V104.7z M274.9,172.7c0,41.1-33.3,74.4-74.4,74.4c-41.1-0.1-74.3-33.3-74.4-74.4V89 c2.7,0.6,5.5,1,8.3,1h140.6V172.7z M274.9,81.7H134.3c-16,0-28.9-13-28.9-28.9V32.1h132.3c20.5,0,37.2,16.7,37.2,37.2V81.7z"></path> <path class="st261" d="M171.9,129.3c8.4,1.8,12.3,11.6,12.3,11.7l7.7-2.9c-0.2-0.6-5.4-14.1-18.3-16.9c-10.2-2.2-21.6,3-34,15.4 l5.8,5.8C155.7,132.4,164.8,127.8,171.9,129.3z"></path> <path class="st261" d="M229.1,129.3c7.1-1.5,16.2,3.1,26.4,13.2l5.8-5.8c-12.4-12.4-23.8-17.6-34-15.4v0 c-12.8,2.8-18,16.3-18.3,16.9l7.7,2.9C216.8,141,220.7,131.1,229.1,129.3z"></path> </g> <g> <path class="st106" d="M291.5,181.3c9.1,0,16.6-8.3,16.6-18.5v-42.9c0-10.2-7.4-18.5-16.6-18.5s-16.6,8.3-16.6,18.5v42.9 C274.9,173,282.3,181.3,291.5,181.3z M291.5,110.5c4.6,0,8.4,4.2,8.4,9.4v42.9c0,5.2-3.8,9.4-8.4,9.4s-8.4-4.2-8.4-9.4v-42.9 C283.1,114.7,286.8,110.5,291.5,110.5z"></path> </g> <g> <path class="st106" d="M111.1,181.3c-9.1,0-16.6-8.3-16.6-18.5v-42.9c0-10.2,7.4-18.5,16.6-18.5s16.6,8.3,16.6,18.5v42.9 C127.6,173,120.2,181.3,111.1,181.3z M111.1,110.5c-4.6,0-8.4,4.2-8.4,9.4v42.9c0,5.2,3.8,9.4,8.4,9.4c4.6,0,8.4-4.2,8.4-9.4v-42.9 C119.5,114.7,115.7,110.5,111.1,110.5z"></path> </g> <path class="st106" d="M105.4,103.7V76.2c0,0,4.1,5.2,8.3,8.3v19.2H105.4z"></path> <path class="st106" d="M287.3,103V77.6c0-5.7-1.7-11.3-4.8-16L276,44.9c12.1,6.4,19.6,19,19.6,32.7V103"></path> </svg>